<mxfile host="65bd71144e">
    <diagram id="k11jE03SduNWbGhImdgy" name="Page-1">
        <mxGraphModel dx="510" dy="428" grid="1" gridSize="10" guides="1" tooltips="1" connect="1" arrows="1" fold="1" page="1" pageScale="1" pageWidth="850" pageHeight="1100" math="0" shadow="0">
            <root>
                <mxCell id="0"/>
                <mxCell id="1" parent="0"/>
                <mxCell id="2" value="PhD Project Timeline - Urban Heat and Health in Johannesburg" style="text;html=1;strokeColor=none;fillColor=none;align=center;verticalAlign=middle;whiteSpace=wrap;rounded=0;fontSize=16;fontStyle=1" vertex="1" parent="1">
                    <mxGeometry x="260" y="20" width="650" height="30" as="geometry"/>
                </mxCell>
                <mxCell id="3" value="Year 1" style="text;html=1;strokeColor=none;fillColor=#0057A4;align=center;verticalAlign=middle;whiteSpace=wrap;rounded=0;fontColor=#FFFFFF;fontStyle=1" vertex="1" parent="1">
                    <mxGeometry x="260" y="60" width="240" height="30" as="geometry"/>
                </mxCell>
                <mxCell id="4" value="Year 2" style="text;html=1;strokeColor=none;fillColor=#0057A4;align=center;verticalAlign=middle;whiteSpace=wrap;rounded=0;fontColor=#FFFFFF;fontStyle=1" vertex="1" parent="1">
                    <mxGeometry x="500" y="60" width="240" height="30" as="geometry"/>
                </mxCell>
                <mxCell id="5" value="Year 3" style="text;html=1;strokeColor=none;fillColor=#0057A4;align=center;verticalAlign=middle;whiteSpace=wrap;rounded=0;fontColor=#FFFFFF;fontStyle=1" vertex="1" parent="1">
                    <mxGeometry x="740" y="60" width="240" height="30" as="geometry"/>
                </mxCell>
                <mxCell id="6" value="Q1" style="text;html=1;strokeColor=none;fillColor=#D6E8FF;align=center;verticalAlign=middle;whiteSpace=wrap;rounded=0;" vertex="1" parent="1">
                    <mxGeometry x="260" y="90" width="60" height="20" as="geometry"/>
                </mxCell>
                <mxCell id="7" value="Q2" style="text;html=1;strokeColor=none;fillColor=#D6E8FF;align=center;verticalAlign=middle;whiteSpace=wrap;rounded=0;" vertex="1" parent="1">
                    <mxGeometry x="320" y="90" width="60" height="20" as="geometry"/>
                </mxCell>
                <mxCell id="8" value="Q3" style="text;html=1;strokeColor=none;fillColor=#D6E8FF;align=center;verticalAlign=middle;whiteSpace=wrap;rounded=0;" vertex="1" parent="1">
                    <mxGeometry x="380" y="90" width="60" height="20" as="geometry"/>
                </mxCell>
                <mxCell id="9" value="Q4" style="text;html=1;strokeColor=none;fillColor=#D6E8FF;align=center;verticalAlign=middle;whiteSpace=wrap;rounded=0;" vertex="1" parent="1">
                    <mxGeometry x="440" y="90" width="60" height="20" as="geometry"/>
                </mxCell>
                <mxCell id="10" value="Q1" style="text;html=1;strokeColor=none;fillColor=#D6E8FF;align=center;verticalAlign=middle;whiteSpace=wrap;rounded=0;" vertex="1" parent="1">
                    <mxGeometry x="500" y="90" width="60" height="20" as="geometry"/>
                </mxCell>
                <mxCell id="11" value="Q2" style="text;html=1;strokeColor=none;fillColor=#D6E8FF;align=center;verticalAlign=middle;whiteSpace=wrap;rounded=0;" vertex="1" parent="1">
                    <mxGeometry x="560" y="90" width="60" height="20" as="geometry"/>
                </mxCell>
                <mxCell id="12" value="Q3" style="text;html=1;strokeColor=none;fillColor=#D6E8FF;align=center;verticalAlign=middle;whiteSpace=wrap;rounded=0;" vertex="1" parent="1">
                    <mxGeometry x="620" y="90" width="60" height="20" as="geometry"/>
                </mxCell>
                <mxCell id="13" value="Q4" style="text;html=1;strokeColor=none;fillColor=#D6E8FF;align=center;verticalAlign=middle;whiteSpace=wrap;rounded=0;" vertex="1" parent="1">
                    <mxGeometry x="680" y="90" width="60" height="20" as="geometry"/>
                </mxCell>
                <mxCell id="14" value="Q1" style="text;html=1;strokeColor=none;fillColor=#D6E8FF;align=center;verticalAlign=middle;whiteSpace=wrap;rounded=0;" vertex="1" parent="1">
                    <mxGeometry x="740" y="90" width="60" height="20" as="geometry"/>
                </mxCell>
                <mxCell id="15" value="Q2" style="text;html=1;strokeColor=none;fillColor=#D6E8FF;align=center;verticalAlign=middle;whiteSpace=wrap;rounded=0;" vertex="1" parent="1">
                    <mxGeometry x="800" y="90" width="60" height="20" as="geometry"/>
                </mxCell>
                <mxCell id="16" value="Q3" style="text;html=1;strokeColor=none;fillColor=#D6E8FF;align=center;verticalAlign=middle;whiteSpace=wrap;rounded=0;" vertex="1" parent="1">
                    <mxGeometry x="860" y="90" width="60" height="20" as="geometry"/>
                </mxCell>
                <mxCell id="17" value="Q4" style="text;html=1;strokeColor=none;fillColor=#D6E8FF;align=center;verticalAlign=middle;whiteSpace=wrap;rounded=0;" vertex="1" parent="1">
                    <mxGeometry x="920" y="90" width="60" height="20" as="geometry"/>
                </mxCell>
                <mxCell id="18" value="Phase 1: Protocol Development" style="text;html=1;strokeColor=none;fillColor=none;align=left;verticalAlign=middle;whiteSpace=wrap;rounded=0;fontStyle=1" vertex="1" parent="1">
                    <mxGeometry x="80" y="120" width="180" height="30" as="geometry"/>
                </mxCell>
                <mxCell id="19" value="Phase 2: Data Acquisition &amp; Processing" style="text;html=1;strokeColor=none;fillColor=none;align=left;verticalAlign=middle;whiteSpace=wrap;rounded=0;fontStyle=1" vertex="1" parent="1">
                    <mxGeometry x="80" y="160" width="180" height="30" as="geometry"/>
                </mxCell>
                <mxCell id="20" value="Phase 3: Heat Vulnerability Mapping" style="text;html=1;strokeColor=none;fillColor=none;align=left;verticalAlign=middle;whiteSpace=wrap;rounded=0;fontStyle=1" vertex="1" parent="1">
                    <mxGeometry x="80" y="200" width="180" height="30" as="geometry"/>
                </mxCell>
                <mxCell id="21" value="Phase 4: Explanatory Modeling" style="text;html=1;strokeColor=none;fillColor=none;align=left;verticalAlign=middle;whiteSpace=wrap;rounded=0;fontStyle=1" vertex="1" parent="1">
                    <mxGeometry x="80" y="240" width="180" height="30" as="geometry"/>
                </mxCell>
                <mxCell id="22" value="Phase 5: Predictive Modeling" style="text;html=1;strokeColor=none;fillColor=none;align=left;verticalAlign=middle;whiteSpace=wrap;rounded=0;fontStyle=1" vertex="1" parent="1">
                    <mxGeometry x="80" y="280" width="180" height="30" as="geometry"/>
                </mxCell>
                <mxCell id="23" value="Phase 6: Thesis Writing" style="text;html=1;strokeColor=none;fillColor=none;align=left;verticalAlign=middle;whiteSpace=wrap;rounded=0;fontStyle=1" vertex="1" parent="1">
                    <mxGeometry x="80" y="320" width="180" height="30" as="geometry"/>
                </mxCell>
                <mxCell id="24" value="" style="rounded=1;whiteSpace=wrap;html=1;fillColor=#FFD200;strokeColor=#d6b656;" vertex="1" parent="1">
                    <mxGeometry x="260" y="120" width="90" height="30" as="geometry"/>
                </mxCell>
                <mxCell id="25" value="" style="rounded=1;whiteSpace=wrap;html=1;fillColor=#FFD200;strokeColor=#d6b656;" vertex="1" parent="1">
                    <mxGeometry x="290" y="160" width="150" height="30" as="geometry"/>
                </mxCell>
                <mxCell id="26" value="" style="rounded=1;whiteSpace=wrap;html=1;fillColor=#FFD200;strokeColor=#d6b656;" vertex="1" parent="1">
                    <mxGeometry x="380" y="200" width="180" height="30" as="geometry"/>
                </mxCell>
                <mxCell id="27" value="" style="rounded=1;whiteSpace=wrap;html=1;fillColor=#FFD200;strokeColor=#d6b656;" vertex="1" parent="1">
                    <mxGeometry x="500" y="240" width="240" height="30" as="geometry"/>
                </mxCell>
                <mxCell id="28" value="" style="rounded=1;whiteSpace=wrap;html=1;fillColor=#FFD200;strokeColor=#d6b656;" vertex="1" parent="1">
                    <mxGeometry x="680" y="280" width="240" height="30" as="geometry"/>
                </mxCell>
                <mxCell id="29" value="" style="rounded=1;whiteSpace=wrap;html=1;fillColor=#FFD200;strokeColor=#d6b656;" vertex="1" parent="1">
                    <mxGeometry x="800" y="320" width="180" height="30" as="geometry"/>
                </mxCell>
                <mxCell id="30" value="M1" style="ellipse;whiteSpace=wrap;html=1;aspect=fixed;fillColor=#0057A4;strokeColor=#6c8ebf;fontColor=#FFFFFF;fontStyle=1" vertex="1" parent="1">
                    <mxGeometry x="340" y="115" width="40" height="40" as="geometry"/>
                </mxCell>
                <mxCell id="31" value="M2" style="ellipse;whiteSpace=wrap;html=1;aspect=fixed;fillColor=#0057A4;strokeColor=#6c8ebf;fontColor=#FFFFFF;fontStyle=1" vertex="1" parent="1">
                    <mxGeometry x="430" y="155" width="40" height="40" as="geometry"/>
                </mxCell>
                <mxCell id="32" value="M3" style="ellipse;whiteSpace=wrap;html=1;aspect=fixed;fillColor=#0057A4;strokeColor=#6c8ebf;fontColor=#FFFFFF;fontStyle=1" vertex="1" parent="1">
                    <mxGeometry x="550" y="195" width="40" height="40" as="geometry"/>
                </mxCell>
                <mxCell id="33" value="M4" style="ellipse;whiteSpace=wrap;html=1;aspect=fixed;fillColor=#0057A4;strokeColor=#6c8ebf;fontColor=#FFFFFF;fontStyle=1" vertex="1" parent="1">
                    <mxGeometry x="730" y="235" width="40" height="40" as="geometry"/>
                </mxCell>
                <mxCell id="34" value="M5" style="ellipse;whiteSpace=wrap;html=1;aspect=fixed;fillColor=#0057A4;strokeColor=#6c8ebf;fontColor=#FFFFFF;fontStyle=1" vertex="1" parent="1">
                    <mxGeometry x="910" y="275" width="40" height="40" as="geometry"/>
                </mxCell>
                <mxCell id="35" value="M6" style="ellipse;whiteSpace=wrap;html=1;aspect=fixed;fillColor=#0057A4;strokeColor=#6c8ebf;fontColor=#FFFFFF;fontStyle=1" vertex="1" parent="1">
                    <mxGeometry x="970" y="315" width="40" height="40" as="geometry"/>
                </mxCell>
                <mxCell id="36" value="Publications" style="text;html=1;strokeColor=none;fillColor=none;align=left;verticalAlign=middle;whiteSpace=wrap;rounded=0;fontStyle=1" vertex="1" parent="1">
                    <mxGeometry x="80" y="380" width="180" height="30" as="geometry"/>
                </mxCell>
                <mxCell id="37" value="Protocol Paper" style="rounded=1;whiteSpace=wrap;html=1;fillColor=#dae8fc;strokeColor=#6c8ebf;" vertex="1" parent="1">
                    <mxGeometry x="310" y="380" width="100" height="30" as="geometry"/>
                </mxCell>
                <mxCell id="38" value="Vulnerability Paper" style="rounded=1;whiteSpace=wrap;html=1;fillColor=#dae8fc;strokeColor=#6c8ebf;" vertex="1" parent="1">
                    <mxGeometry x="430" y="380" width="120" height="30" as="geometry"/>
                </mxCell>
                <mxCell id="39" value="Explanatory ML Paper" style="rounded=1;whiteSpace=wrap;html=1;fillColor=#dae8fc;strokeColor=#6c8ebf;" vertex="1" parent="1">
                    <mxGeometry x="620" y="380" width="140" height="30" as="geometry"/>
                </mxCell>
                <mxCell id="40" value="Predictive Modeling Paper" style="rounded=1;whiteSpace=wrap;html=1;fillColor=#dae8fc;strokeColor=#6c8ebf;" vertex="1" parent="1">
                    <mxGeometry x="860" y="380" width="160" height="30" as="geometry"/>
                </mxCell>
                <mxCell id="41" value="Faculty Assessment" style="text;html=1;strokeColor=none;fillColor=none;align=left;verticalAlign=middle;whiteSpace=wrap;rounded=0;fontStyle=1" vertex="1" parent="1">
                    <mxGeometry x="80" y="430" width="180" height="30" as="geometry"/>
                </mxCell>
                <mxCell id="42" value="Initial Review" style="shape=hexagon;perimeter=hexagonPerimeter2;whiteSpace=wrap;html=1;fixedSize=1;fillColor=#f8cecc;strokeColor=#b85450;" vertex="1" parent="1">
                    <mxGeometry x="320" y="430" width="100" height="30" as="geometry"/>
                </mxCell>
                <mxCell id="43" value="Annual Progress Review" style="shape=hexagon;perimeter=hexagonPerimeter2;whiteSpace=wrap;html=1;fixedSize=1;fillColor=#f8cecc;strokeColor=#b85450;" vertex="1" parent="1">
                    <mxGeometry x="500" y="430" width="160" height="30" as="geometry"/>
                </mxCell>
                <mxCell id="44" value="Annual Progress Review" style="shape=hexagon;perimeter=hexagonPerimeter2;whiteSpace=wrap;html=1;fixedSize=1;fillColor=#f8cecc;strokeColor=#b85450;" vertex="1" parent="1">
                    <mxGeometry x="740" y="430" width="160" height="30" as="geometry"/>
                </mxCell>
                <mxCell id="45" value="Thesis Submission" style="shape=hexagon;perimeter=hexagonPerimeter2;whiteSpace=wrap;html=1;fixedSize=1;fillColor=#f8cecc;strokeColor=#b85450;" vertex="1" parent="1">
                    <mxGeometry x="920" y="430" width="120" height="30" as="geometry"/>
                </mxCell>
                <mxCell id="46" value="Legend:" style="text;html=1;strokeColor=none;fillColor=none;align=left;verticalAlign=middle;whiteSpace=wrap;rounded=0;fontStyle=1" vertex="1" parent="1">
                    <mxGeometry x="80" y="480" width="60" height="30" as="geometry"/>
                </mxCell>
                <mxCell id="47" value="" style="rounded=1;whiteSpace=wrap;html=1;fillColor=#FFD200;strokeColor=#d6b656;" vertex="1" parent="1">
                    <mxGeometry x="150" y="480" width="60" height="20" as="geometry"/>
                </mxCell>
                <mxCell id="48" value="Research Phase" style="text;html=1;strokeColor=none;fillColor=none;align=left;verticalAlign=middle;whiteSpace=wrap;rounded=0;" vertex="1" parent="1">
                    <mxGeometry x="220" y="475" width="100" height="30" as="geometry"/>
                </mxCell>
                <mxCell id="49" value="M1" style="ellipse;whiteSpace=wrap;html=1;aspect=fixed;fillColor=#0057A4;strokeColor=#6c8ebf;fontColor=#FFFFFF;fontStyle=1" vertex="1" parent="1">
                    <mxGeometry x="340" y="475" width="30" height="30" as="geometry"/>
                </mxCell>
                <mxCell id="50" value="Milestone" style="text;html=1;strokeColor=none;fillColor=none;align=left;verticalAlign=middle;whiteSpace=wrap;rounded=0;" vertex="1" parent="1">
                    <mxGeometry x="380" y="475" width="60" height="30" as="geometry"/>
                </mxCell>
                <mxCell id="51" value="" style="rounded=1;whiteSpace=wrap;html=1;fillColor=#dae8fc;strokeColor=#6c8ebf;" vertex="1" parent="1">
                    <mxGeometry x="450" y="480" width="60" height="20" as="geometry"/>
                </mxCell>
                <mxCell id="52" value="Publication" style="text;html=1;strokeColor=none;fillColor=none;align=left;verticalAlign=middle;whiteSpace=wrap;rounded=0;" vertex="1" parent="1">
                    <mxGeometry x="520" y="475" width="70" height="30" as="geometry"/>
                </mxCell>
                <mxCell id="53" value="" style="shape=hexagon;perimeter=hexagonPerimeter2;whiteSpace=wrap;html=1;fixedSize=1;fillColor=#f8cecc;strokeColor=#b85450;" vertex="1" parent="1">
                    <mxGeometry x="600" y="480" width="60" height="20" as="geometry"/>
                </mxCell>
                <mxCell id="54" value="Faculty Assessment" style="text;html=1;strokeColor=none;fillColor=none;align=left;verticalAlign=middle;whiteSpace=wrap;rounded=0;" vertex="1" parent="1">
                    <mxGeometry x="670" y="475" width="120" height="30" as="geometry"/>
                </mxCell>
                <mxCell id="55" value="Milestone Descriptions:" style="text;html=1;strokeColor=none;fillColor=none;align=left;verticalAlign=middle;whiteSpace=wrap;rounded=0;fontStyle=1" vertex="1" parent="1">
                    <mxGeometry x="80" y="520" width="180" height="30" as="geometry"/>
                </mxCell>
                <mxCell id="56" value="M1: Protocol Finalization (Month 3)" style="text;html=1;strokeColor=none;fillColor=none;align=left;verticalAlign=middle;whiteSpace=wrap;rounded=0;" vertex="1" parent="1">
                    <mxGeometry x="80" y="550" width="240" height="20" as="geometry"/>
                </mxCell>
                <mxCell id="57" value="M2: Data Acquisition Completion (Month 9)" style="text;html=1;strokeColor=none;fillColor=none;align=left;verticalAlign=middle;whiteSpace=wrap;rounded=0;" vertex="1" parent="1">
                    <mxGeometry x="80" y="570" width="240" height="20" as="geometry"/>
                </mxCell>
                <mxCell id="58" value="M3: Vulnerability Mapping Completion (Month 18)" style="text;html=1;strokeColor=none;fillColor=none;align=left;verticalAlign=middle;whiteSpace=wrap;rounded=0;" vertex="1" parent="1">
                    <mxGeometry x="80" y="590" width="280" height="20" as="geometry"/>
                </mxCell>
                <mxCell id="59" value="M4: Model Validation (Month 30)" style="text;html=1;strokeColor=none;fillColor=none;align=left;verticalAlign=middle;whiteSpace=wrap;rounded=0;" vertex="1" parent="1">
                    <mxGeometry x="80" y="610" width="240" height="20" as="geometry"/>
                </mxCell>
                <mxCell id="60" value="M5: Predictive Model Deployment (Month 33)" style="text;html=1;strokeColor=none;fillColor=none;align=left;verticalAlign=middle;whiteSpace=wrap;rounded=0;" vertex="1" parent="1">
                    <mxGeometry x="80" y="630" width="280" height="20" as="geometry"/>
                </mxCell>
                <mxCell id="61" value="M6: Thesis Submission (Month 36)" style="text;html=1;strokeColor=none;fillColor=none;align=left;verticalAlign=middle;whiteSpace=wrap;rounded=0;" vertex="1" parent="1">
                    <mxGeometry x="80" y="650" width="240" height="20" as="geometry"/>
                </mxCell>
                <mxCell id="62" value="Publication Plan:" style="text;html=1;strokeColor=none;fillColor=none;align=left;verticalAlign=middle;whiteSpace=wrap;rounded=0;fontStyle=1" vertex="1" parent="1">
                    <mxGeometry x="400" y="520" width="180" height="30" as="geometry"/>
                </mxCell>
                <mxCell id="63" value="1. Protocol Paper (Month 4): 'Leveraging data science and machine learning for urban climate adaptation in two major African cities: a HE2AT Center study protocol'" style="text;html=1;strokeColor=none;fillColor=none;align=left;verticalAlign=middle;whiteSpace=wrap;rounded=0;" vertex="1" parent="1">
                    <mxGeometry x="400" y="550" width="580" height="30" as="geometry"/>
                </mxCell>
                <mxCell id="64" value="2. Vulnerability Paper (Month 9): 'Quantifying intra-urban socio-economic and environmental vulnerability to extreme heat events in Johannesburg, South Africa'" style="text;html=1;strokeColor=none;fillColor=none;align=left;verticalAlign=middle;whiteSpace=wrap;rounded=0;" vertex="1" parent="1">
                    <mxGeometry x="400" y="580" width="580" height="30" as="geometry"/>
                </mxCell>
                <mxCell id="65" value="3. Explanatory ML Paper (Month 19): 'Uncovering Heat-Health Pathways in Johannesburg: An Explanatory Machine Learning Approach Using Harmonized Urban Cohort Data'" style="text;html=1;strokeColor=none;fillColor=none;align=left;verticalAlign=middle;whiteSpace=wrap;rounded=0;" vertex="1" parent="1">
                    <mxGeometry x="400" y="610" width="580" height="30" as="geometry"/>
                </mxCell>
                <mxCell id="66" value="4. Predictive Modeling Paper (Month 33): 'Developing Stratified Heat-Health Early Warning Systems for Johannesburg: Integration of Vulnerability Mapping and Predictive Modeling'" style="text;html=1;strokeColor=none;fillColor=none;align=left;verticalAlign=middle;whiteSpace=wrap;rounded=0;" vertex="1" parent="1">
                    <mxGeometry x="400" y="640" width="580" height="30" as="geometry"/>
                </mxCell>
                <mxCell id="67" value="Primary risks include data accessibility challenges, computational constraints, and model performance issues. Detailed timelines, activities, and risk mitigation strategies are provided in Appendix C." style="text;html=1;strokeColor=none;fillColor=none;align=left;verticalAlign=middle;whiteSpace=wrap;rounded=0;fontStyle=2" vertex="1" parent="1">
                    <mxGeometry x="80" y="680" width="900" height="30" as="geometry"/>
                </mxCell>
            </root>
        </mxGraphModel>
    </diagram>
    <diagram name="Page-2" id="tb6y9rQmOqUfojQGwwka">
        <mxGraphModel dx="510" dy="749" grid="1" gridSize="10" guides="1" tooltips="1" connect="1" arrows="1" fold="1" page="1" pageScale="1" pageWidth="827" pageHeight="1169" math="0" shadow="0">
            <root>
                <mxCell id="0"/>
                <mxCell id="1" parent="0"/>
                <mxCell id="h4wn7cuC0amw1rr8jjnN-1" value="Conceptual Framework: Urban Heat Vulnerability in Johannesburg" style="text;fontSize=18;fontStyle=1;align=center;fontColor=#006666;" parent="1" vertex="1">
                    <mxGeometry x="230" y="20" width="700" height="30" as="geometry"/>
                </mxCell>
                <mxCell id="h4wn7cuC0amw1rr8jjnN-2" value="HISTORICAL CONTEXT: APARTHEID LEGACY" style="shape=process;whiteSpace=wrap;html=1;backgroundOutline=1;fillColor=#f5f5f5;strokeColor=#666666;fontColor=#333333;fontSize=12;fontStyle=1;" parent="1" vertex="1">
                    <mxGeometry x="230" y="60" width="700" height="30" as="geometry"/>
                </mxCell>
                <mxCell id="h4wn7cuC0amw1rr8jjnN-3" value="EXPOSURE" style="rounded=1;whiteSpace=wrap;html=1;fillColor=#f8cecc;strokeColor=#b85450;fontSize=14;fontStyle=1;" parent="1" vertex="1">
                    <mxGeometry x="190" y="130" width="220" height="60" as="geometry"/>
                </mxCell>
                <mxCell id="h4wn7cuC0amw1rr8jjnN-4" value="SENSITIVITY" style="rounded=1;whiteSpace=wrap;html=1;fillColor=#fff2cc;strokeColor=#d6b656;fontSize=14;fontStyle=1;" parent="1" vertex="1">
                    <mxGeometry x="470" y="130" width="220" height="60" as="geometry"/>
                </mxCell>
                <mxCell id="h4wn7cuC0amw1rr8jjnN-5" value="ADAPTIVE CAPACITY" style="rounded=1;whiteSpace=wrap;html=1;fillColor=#d5e8d4;strokeColor=#82b366;fontSize=14;fontStyle=1;" parent="1" vertex="1">
                    <mxGeometry x="750" y="130" width="220" height="60" as="geometry"/>
                </mxCell>
                <mxCell id="h4wn7cuC0amw1rr8jjnN-6" value="• Urban Heat Islands&#10;• Surface Temperature&#10;• Land Cover/Land Use&#10;• Vegetation Density&#10;• Building Density" style="text;strokeColor=none;fillColor=none;align=left;verticalAlign=middle;whiteSpace=wrap;rounded=0;fontSize=12;" parent="1" vertex="1">
                    <mxGeometry x="190" y="200" width="220" height="80" as="geometry"/>
                </mxCell>
                <mxCell id="h4wn7cuC0amw1rr8jjnN-7" value="• Age Demographics&#10;• Pre-existing Health Conditions&#10;• Comorbidities (HIV, TB)&#10;• Inflammatory Markers&#10;• Renal Function" style="text;strokeColor=none;fillColor=none;align=left;verticalAlign=middle;whiteSpace=wrap;rounded=0;fontSize=12;" parent="1" vertex="1">
                    <mxGeometry x="470" y="200" width="220" height="80" as="geometry"/>
                </mxCell>
                <mxCell id="h4wn7cuC0amw1rr8jjnN-8" value="• Air Conditioning Access&#10;• Housing Quality&#10;• Public Cooling Access&#10;• Green Space Proximity&#10;• Healthcare Access" style="text;strokeColor=none;fillColor=none;align=left;verticalAlign=middle;whiteSpace=wrap;rounded=0;fontSize=12;" parent="1" vertex="1">
                    <mxGeometry x="750" y="200" width="220" height="80" as="geometry"/>
                </mxCell>
                <mxCell id="h4wn7cuC0amw1rr8jjnN-9" value="INFRASTRUCTURAL JUSTICE FRAMING" style="ellipse;whiteSpace=wrap;html=1;fillColor=#e1d5e7;strokeColor=#9673a6;fontSize=14;fontStyle=1;" parent="1" vertex="1">
                    <mxGeometry x="455" y="290" width="250" height="80" as="geometry"/>
                </mxCell>
                <mxCell id="h4wn7cuC0amw1rr8jjnN-10" value="• Unequal access to protective infrastructure&#10;• Spatial patterns of heat vulnerability&#10;• Socio-economic exclusion patterns" style="text;strokeColor=none;fillColor=none;align=center;verticalAlign=middle;whiteSpace=wrap;rounded=0;fontSize=12;" parent="1" vertex="1">
                    <mxGeometry x="455" y="380" width="250" height="60" as="geometry"/>
                </mxCell>
                <mxCell id="h4wn7cuC0amw1rr8jjnN-11" value="ANALYTICAL APPROACH" style="shape=hexagon;perimeter=hexagonPerimeter2;whiteSpace=wrap;html=1;fillColor=#dae8fc;strokeColor=#6c8ebf;fontSize=14;fontStyle=1;" parent="1" vertex="1">
                    <mxGeometry x="230" y="450" width="700" height="60" as="geometry"/>
                </mxCell>
                <mxCell id="h4wn7cuC0amw1rr8jjnN-12" value="• Geographically Weighted Principal Component Analysis (GW-PCA)&#10;• Causal Machine Learning (PC Algorithm, XGBoost with SHAP)&#10;• LASSO Regression for Predictive Modeling&#10;• Spatio-temporal modeling with DLNM" style="text;strokeColor=none;fillColor=none;align=center;verticalAlign=middle;whiteSpace=wrap;rounded=0;fontSize=12;" parent="1" vertex="1">
                    <mxGeometry x="230" y="520" width="700" height="60" as="geometry"/>
                </mxCell>
                <mxCell id="h4wn7cuC0amw1rr8jjnN-13" value="HEALTH OUTCOMES" style="rounded=1;whiteSpace=wrap;html=1;fillColor=#ffe6cc;strokeColor=#d79b00;fontSize=14;fontStyle=1;" parent="1" vertex="1">
                    <mxGeometry x="230" y="590" width="220" height="60" as="geometry"/>
                </mxCell>
                <mxCell id="h4wn7cuC0amw1rr8jjnN-14" value="• Heat-related mortality&#10;• Cardiovascular events&#10;• Renal dysfunction&#10;• Respiratory exacerbations" style="text;strokeColor=none;fillColor=none;align=left;verticalAlign=middle;whiteSpace=wrap;rounded=0;fontSize=12;" parent="1" vertex="1">
                    <mxGeometry x="230" y="660" width="220" height="70" as="geometry"/>
                </mxCell>
                <mxCell id="h4wn7cuC0amw1rr8jjnN-15" value="POLICY IMPLICATIONS" style="rounded=1;whiteSpace=wrap;html=1;fillColor=#b0e3e6;strokeColor=#0e8088;fontSize=14;fontStyle=1;" parent="1" vertex="1">
                    <mxGeometry x="470" y="590" width="220" height="60" as="geometry"/>
                </mxCell>
                <mxCell id="h4wn7cuC0amw1rr8jjnN-16" value="• Early warning systems&#10;• Urban greening strategies&#10;• Housing policy interventions&#10;• Healthcare resource allocation" style="text;strokeColor=none;fillColor=none;align=left;verticalAlign=middle;whiteSpace=wrap;rounded=0;fontSize=12;" parent="1" vertex="1">
                    <mxGeometry x="470" y="660" width="220" height="70" as="geometry"/>
                </mxCell>
                <mxCell id="h4wn7cuC0amw1rr8jjnN-17" value="CLIMATE CHANGE CONTEXT" style="rounded=1;whiteSpace=wrap;html=1;fillColor=#f8cecc;strokeColor=#b85450;fontSize=14;fontStyle=1;" parent="1" vertex="1">
                    <mxGeometry x="710" y="590" width="220" height="60" as="geometry"/>
                </mxCell>
                <mxCell id="h4wn7cuC0amw1rr8jjnN-18" value="• Accelerating warming trends&#10;• Increased extreme heat events&#10;• Urban heat island intensification&#10;• IPCC AR6 regional projections" style="text;strokeColor=none;fillColor=none;align=left;verticalAlign=middle;whiteSpace=wrap;rounded=0;fontSize=12;" parent="1" vertex="1">
                    <mxGeometry x="710" y="660" width="220" height="70" as="geometry"/>
                </mxCell>
                <mxCell id="h4wn7cuC0amw1rr8jjnN-19" value="JOHANNESBURG CONTEXT" style="shape=process;whiteSpace=wrap;html=1;backgroundOutline=1;fillColor=#f5f5f5;strokeColor=#666666;fontColor=#333333;fontSize=12;fontStyle=1;" parent="1" vertex="1">
                    <mxGeometry x="230" y="740" width="700" height="30" as="geometry"/>
                </mxCell>
                <mxCell id="h4wn7cuC0amw1rr8jjnN-20" style="edgeStyle=orthogonalEdgeStyle;rounded=0;orthogonalLoop=1;jettySize=auto;html=1;exitX=0.25;exitY=1;exitDx=0;exitDy=0;entryX=0.5;entryY=0;entryDx=0;entryDy=0;" parent="1" source="h4wn7cuC0amw1rr8jjnN-2" target="h4wn7cuC0amw1rr8jjnN-3" edge="1">
                    <mxGeometry relative="1" as="geometry"/>
                </mxCell>
                <mxCell id="h4wn7cuC0amw1rr8jjnN-21" style="edgeStyle=orthogonalEdgeStyle;rounded=0;orthogonalLoop=1;jettySize=auto;html=1;exitX=0.5;exitY=1;exitDx=0;exitDy=0;entryX=0.5;entryY=0;entryDx=0;entryDy=0;" parent="1" source="h4wn7cuC0amw1rr8jjnN-2" target="h4wn7cuC0amw1rr8jjnN-4" edge="1">
                    <mxGeometry relative="1" as="geometry"/>
                </mxCell>
                <mxCell id="h4wn7cuC0amw1rr8jjnN-22" style="edgeStyle=orthogonalEdgeStyle;rounded=0;orthogonalLoop=1;jettySize=auto;html=1;exitX=0.75;exitY=1;exitDx=0;exitDy=0;entryX=0.5;entryY=0;entryDx=0;entryDy=0;" parent="1" source="h4wn7cuC0amw1rr8jjnN-2" target="h4wn7cuC0amw1rr8jjnN-5" edge="1">
                    <mxGeometry relative="1" as="geometry"/>
                </mxCell>
                <mxCell id="h4wn7cuC0amw1rr8jjnN-23" style="edgeStyle=orthogonalEdgeStyle;rounded=0;orthogonalLoop=1;jettySize=auto;html=1;exitX=0.5;exitY=1;exitDx=0;exitDy=0;entryX=0;entryY=0.5;entryDx=0;entryDy=0;" parent="1" source="h4wn7cuC0amw1rr8jjnN-6" target="h4wn7cuC0amw1rr8jjnN-9" edge="1">
                    <mxGeometry relative="1" as="geometry">
                        <Array as="points">
                            <mxPoint x="300" y="330"/>
                        </Array>
                    </mxGeometry>
                </mxCell>
                <mxCell id="h4wn7cuC0amw1rr8jjnN-24" style="edgeStyle=orthogonalEdgeStyle;rounded=0;orthogonalLoop=1;jettySize=auto;html=1;exitX=0.5;exitY=1;exitDx=0;exitDy=0;entryX=0.5;entryY=0;entryDx=0;entryDy=0;" parent="1" source="h4wn7cuC0amw1rr8jjnN-7" target="h4wn7cuC0amw1rr8jjnN-9" edge="1">
                    <mxGeometry relative="1" as="geometry"/>
                </mxCell>
                <mxCell id="h4wn7cuC0amw1rr8jjnN-25" style="edgeStyle=orthogonalEdgeStyle;rounded=0;orthogonalLoop=1;jettySize=auto;html=1;exitX=0.5;exitY=1;exitDx=0;exitDy=0;entryX=1;entryY=0.5;entryDx=0;entryDy=0;" parent="1" source="h4wn7cuC0amw1rr8jjnN-8" target="h4wn7cuC0amw1rr8jjnN-9" edge="1">
                    <mxGeometry relative="1" as="geometry">
                        <Array as="points">
                            <mxPoint x="860" y="330"/>
                        </Array>
                    </mxGeometry>
                </mxCell>
                <mxCell id="h4wn7cuC0amw1rr8jjnN-26" style="edgeStyle=orthogonalEdgeStyle;rounded=0;orthogonalLoop=1;jettySize=auto;html=1;exitX=0.5;exitY=1;exitDx=0;exitDy=0;entryX=0.5;entryY=0;entryDx=0;entryDy=0;" parent="1" source="h4wn7cuC0amw1rr8jjnN-10" target="h4wn7cuC0amw1rr8jjnN-11" edge="1">
                    <mxGeometry relative="1" as="geometry"/>
                </mxCell>
                <mxCell id="h4wn7cuC0amw1rr8jjnN-27" style="edgeStyle=orthogonalEdgeStyle;rounded=0;orthogonalLoop=1;jettySize=auto;html=1;exitX=0.155;exitY=1;exitDx=0;exitDy=0;entryX=0.5;entryY=0;entryDx=0;entryDy=0;exitPerimeter=0;" parent="1" source="h4wn7cuC0amw1rr8jjnN-12" target="h4wn7cuC0amw1rr8jjnN-13" edge="1">
                    <mxGeometry relative="1" as="geometry"/>
                </mxCell>
                <mxCell id="h4wn7cuC0amw1rr8jjnN-28" style="edgeStyle=orthogonalEdgeStyle;rounded=0;orthogonalLoop=1;jettySize=auto;html=1;exitX=0.5;exitY=1;exitDx=0;exitDy=0;entryX=0.5;entryY=0;entryDx=0;entryDy=0;" parent="1" source="h4wn7cuC0amw1rr8jjnN-12" target="h4wn7cuC0amw1rr8jjnN-15" edge="1">
                    <mxGeometry relative="1" as="geometry"/>
                </mxCell>
                <mxCell id="h4wn7cuC0amw1rr8jjnN-29" style="edgeStyle=orthogonalEdgeStyle;rounded=0;orthogonalLoop=1;jettySize=auto;html=1;exitX=0.845;exitY=1;exitDx=0;exitDy=0;entryX=0.5;entryY=0;entryDx=0;entryDy=0;exitPerimeter=0;" parent="1" source="h4wn7cuC0amw1rr8jjnN-12" target="h4wn7cuC0amw1rr8jjnN-17" edge="1">
                    <mxGeometry relative="1" as="geometry"/>
                </mxCell>
                <mxCell id="h4wn7cuC0amw1rr8jjnN-30" style="edgeStyle=orthogonalEdgeStyle;rounded=0;orthogonalLoop=1;jettySize=auto;html=1;exitX=0.5;exitY=1;exitDx=0;exitDy=0;entryX=0.143;entryY=0;entryDx=0;entryDy=0;entryPerimeter=0;" parent="1" source="h4wn7cuC0amw1rr8jjnN-14" target="h4wn7cuC0amw1rr8jjnN-19" edge="1">
                    <mxGeometry relative="1" as="geometry"/>
                </mxCell>
                <mxCell id="h4wn7cuC0amw1rr8jjnN-31" style="edgeStyle=orthogonalEdgeStyle;rounded=0;orthogonalLoop=1;jettySize=auto;html=1;exitX=0.5;exitY=1;exitDx=0;exitDy=0;entryX=0.5;entryY=0;entryDx=0;entryDy=0;" parent="1" source="h4wn7cuC0amw1rr8jjnN-16" target="h4wn7cuC0amw1rr8jjnN-19" edge="1">
                    <mxGeometry relative="1" as="geometry"/>
                </mxCell>
                <mxCell id="h4wn7cuC0amw1rr8jjnN-32" style="edgeStyle=orthogonalEdgeStyle;rounded=0;orthogonalLoop=1;jettySize=auto;html=1;exitX=0.5;exitY=1;exitDx=0;exitDy=0;entryX=0.857;entryY=0;entryDx=0;entryDy=0;entryPerimeter=0;" parent="1" source="h4wn7cuC0amw1rr8jjnN-18" target="h4wn7cuC0amw1rr8jjnN-19" edge="1">
                    <mxGeometry relative="1" as="geometry"/>
                </mxCell>
            </root>
        </mxGraphModel>
    </diagram>
    <diagram name="Page-3" id="Ugwfwk_nAEpGmMGNO6B4">
        <mxGraphModel dx="1337" dy="749" grid="1" gridSize="10" guides="1" tooltips="1" connect="1" arrows="1" fold="1" page="1" pageScale="1" pageWidth="827" pageHeight="1169" math="0" shadow="0">
            <root>
                <mxCell id="0"/>
                <mxCell id="1" parent="0"/>
                <mxCell id="vfWaW2UHl3x4KkC4JvXO-1" value="Conceptual Framework: Urban Heat Vulnerability Analysis" style="text;fontSize=18;fontStyle=1;align=center;fontColor=#006666;" parent="1" vertex="1">
                    <mxGeometry x="230" y="20" width="700" height="30" as="geometry"/>
                </mxCell>
                <mxCell id="vfWaW2UHl3x4KkC4JvXO-2" value="HISTORICAL CONTEXT: URBAN DEVELOPMENT PATTERNS" style="shape=process;whiteSpace=wrap;html=1;backgroundOutline=1;fillColor=#f5f5f5;strokeColor=#666666;fontColor=#333333;fontSize=12;fontStyle=1;" parent="1" vertex="1">
                    <mxGeometry x="230" y="60" width="700" height="30" as="geometry"/>
                </mxCell>
                <mxCell id="vfWaW2UHl3x4KkC4JvXO-3" value="EXPOSURE" style="rounded=1;whiteSpace=wrap;html=1;fillColor=#f8cecc;strokeColor=#b85450;fontSize=14;fontStyle=1;" parent="1" vertex="1">
                    <mxGeometry x="190" y="130" width="220" height="60" as="geometry"/>
                </mxCell>
                <mxCell id="vfWaW2UHl3x4KkC4JvXO-4" value="SENSITIVITY" style="rounded=1;whiteSpace=wrap;html=1;fillColor=#fff2cc;strokeColor=#d6b656;fontSize=14;fontStyle=1;" parent="1" vertex="1">
                    <mxGeometry x="470" y="130" width="220" height="60" as="geometry"/>
                </mxCell>
                <mxCell id="vfWaW2UHl3x4KkC4JvXO-5" value="ADAPTIVE CAPACITY" style="rounded=1;whiteSpace=wrap;html=1;fillColor=#d5e8d4;strokeColor=#82b366;fontSize=14;fontStyle=1;" parent="1" vertex="1">
                    <mxGeometry x="750" y="130" width="220" height="60" as="geometry"/>
                </mxCell>
                <mxCell id="vfWaW2UHl3x4KkC4JvXO-6" value="• Urban Heat Islands&#10;• Surface Temperature&#10;• Land Cover/Land Use&#10;• Vegetation Density&#10;• Building Density" style="text;strokeColor=none;fillColor=none;align=left;verticalAlign=middle;whiteSpace=wrap;rounded=0;fontSize=12;" parent="1" vertex="1">
                    <mxGeometry x="190" y="200" width="220" height="80" as="geometry"/>
                </mxCell>
                <mxCell id="vfWaW2UHl3x4KkC4JvXO-7" value="• Age Demographics&#10;• Pre-existing Health Conditions&#10;• Comorbidities (HIV, TB)&#10;• Inflammatory Markers&#10;• Renal Function" style="text;strokeColor=none;fillColor=none;align=left;verticalAlign=middle;whiteSpace=wrap;rounded=0;fontSize=12;" parent="1" vertex="1">
                    <mxGeometry x="470" y="200" width="220" height="80" as="geometry"/>
                </mxCell>
                <mxCell id="vfWaW2UHl3x4KkC4JvXO-8" value="• Air Conditioning Access&#10;• Housing Quality&#10;• Public Cooling Access&#10;• Green Space Proximity&#10;• Healthcare Access" style="text;strokeColor=none;fillColor=none;align=left;verticalAlign=middle;whiteSpace=wrap;rounded=0;fontSize=12;" parent="1" vertex="1">
                    <mxGeometry x="750" y="200" width="220" height="80" as="geometry"/>
                </mxCell>
                <mxCell id="vfWaW2UHl3x4KkC4JvXO-9" value="ANALYTICAL LENSES" style="shape=process;whiteSpace=wrap;html=1;backgroundOutline=1;fillColor=#f5f5f5;strokeColor=#666666;fontColor=#333333;fontSize=14;fontStyle=1;" parent="1" vertex="1">
                    <mxGeometry x="230" y="290" width="700" height="40" as="geometry"/>
                </mxCell>
                <mxCell id="vfWaW2UHl3x4KkC4JvXO-10" value="INFRASTRUCTURAL JUSTICE" style="ellipse;whiteSpace=wrap;html=1;fillColor=#e1d5e7;strokeColor=#9673a6;fontSize=14;fontStyle=1;" parent="1" vertex="1">
                    <mxGeometry x="190" y="350" width="220" height="60" as="geometry"/>
                </mxCell>
                <mxCell id="vfWaW2UHl3x4KkC4JvXO-11" value="CLIMATE RESILIENCE" style="ellipse;whiteSpace=wrap;html=1;fillColor=#dae8fc;strokeColor=#6c8ebf;fontSize=14;fontStyle=1;" parent="1" vertex="1">
                    <mxGeometry x="470" y="340" width="220" height="60" as="geometry"/>
                </mxCell>
                <mxCell id="vfWaW2UHl3x4KkC4JvXO-12" value="HEALTH EQUITY" style="ellipse;whiteSpace=wrap;html=1;fillColor=#fff2cc;strokeColor=#d6b656;fontSize=14;fontStyle=1;" parent="1" vertex="1">
                    <mxGeometry x="750" y="340" width="220" height="60" as="geometry"/>
                </mxCell>
                <mxCell id="vfWaW2UHl3x4KkC4JvXO-13" value="• Access to protective infrastructure&#10;• Legacy of socio-spatial patterns" style="text;strokeColor=none;fillColor=none;align=center;verticalAlign=middle;whiteSpace=wrap;rounded=0;fontSize=12;" parent="1" vertex="1">
                    <mxGeometry x="190" y="410" width="220" height="40" as="geometry"/>
                </mxCell>
                <mxCell id="vfWaW2UHl3x4KkC4JvXO-14" value="• Adaptive capacity building&#10;• Climate-resilient urban futures" style="text;strokeColor=none;fillColor=none;align=center;verticalAlign=middle;whiteSpace=wrap;rounded=0;fontSize=12;" parent="1" vertex="1">
                    <mxGeometry x="470" y="410" width="220" height="40" as="geometry"/>
                </mxCell>
                <mxCell id="vfWaW2UHl3x4KkC4JvXO-15" value="• Differential health impacts&#10;• Vulnerable population identification" style="text;strokeColor=none;fillColor=none;align=center;verticalAlign=middle;whiteSpace=wrap;rounded=0;fontSize=12;" parent="1" vertex="1">
                    <mxGeometry x="750" y="410" width="220" height="40" as="geometry"/>
                </mxCell>
                <mxCell id="vfWaW2UHl3x4KkC4JvXO-16" value="ANALYTICAL APPROACH" style="shape=hexagon;perimeter=hexagonPerimeter2;whiteSpace=wrap;html=1;fillColor=#dae8fc;strokeColor=#6c8ebf;fontSize=14;fontStyle=1;" parent="1" vertex="1">
                    <mxGeometry x="230" y="470" width="700" height="60" as="geometry"/>
                </mxCell>
                <mxCell id="vfWaW2UHl3x4KkC4JvXO-17" value="• Geographically Weighted Principal Component Analysis (GW-PCA)&#10;• Causal Machine Learning (PC Algorithm, XGBoost with SHAP)&#10;• LASSO Regression for Predictive Modeling&#10;• Spatio-temporal modeling with DLNM" style="text;strokeColor=none;fillColor=none;align=center;verticalAlign=middle;whiteSpace=wrap;rounded=0;fontSize=12;" parent="1" vertex="1">
                    <mxGeometry x="230" y="540" width="700" height="60" as="geometry"/>
                </mxCell>
                <mxCell id="vfWaW2UHl3x4KkC4JvXO-18" value="RESEARCH PHASES" style="shape=process;whiteSpace=wrap;html=1;backgroundOutline=1;fillColor=#f5f5f5;strokeColor=#666666;fontColor=#333333;fontSize=14;fontStyle=1;" parent="1" vertex="1">
                    <mxGeometry x="230" y="610" width="700" height="40" as="geometry"/>
                </mxCell>
                <mxCell id="vfWaW2UHl3x4KkC4JvXO-19" value="1. VULNERABILITY MAPPING" style="rounded=1;whiteSpace=wrap;html=1;fillColor=#f8cecc;strokeColor=#b85450;fontSize=14;fontStyle=1;" parent="1" vertex="1">
                    <mxGeometry x="190" y="660" width="220" height="60" as="geometry"/>
                </mxCell>
                <mxCell id="vfWaW2UHl3x4KkC4JvXO-20" value="2. CAUSAL ANALYSIS" style="rounded=1;whiteSpace=wrap;html=1;fillColor=#fff2cc;strokeColor=#d6b656;fontSize=14;fontStyle=1;" parent="1" vertex="1">
                    <mxGeometry x="470" y="660" width="220" height="60" as="geometry"/>
                </mxCell>
                <mxCell id="vfWaW2UHl3x4KkC4JvXO-21" value="3. PREDICTIVE MODELING" style="rounded=1;whiteSpace=wrap;html=1;fillColor=#d5e8d4;strokeColor=#82b366;fontSize=14;fontStyle=1;" parent="1" vertex="1">
                    <mxGeometry x="750" y="660" width="220" height="60" as="geometry"/>
                </mxCell>
                <mxCell id="vfWaW2UHl3x4KkC4JvXO-22" value="• Heat-related mortality&#10;• Cardiovascular events&#10;• Renal dysfunction&#10;• Respiratory exacerbations" style="text;strokeColor=none;fillColor=none;align=left;verticalAlign=middle;whiteSpace=wrap;rounded=0;fontSize=12;" parent="1" vertex="1">
                    <mxGeometry x="200" y="720" width="220" height="70" as="geometry"/>
                </mxCell>
                <mxCell id="vfWaW2UHl3x4KkC4JvXO-23" value="POLICY IMPLICATIONS" style="rounded=1;whiteSpace=wrap;html=1;fillColor=#b0e3e6;strokeColor=#0e8088;fontSize=14;fontStyle=1;" parent="1" vertex="1">
                    <mxGeometry x="-30" y="510" width="220" height="60" as="geometry"/>
                </mxCell>
                <mxCell id="vfWaW2UHl3x4KkC4JvXO-24" value="• Early warning systems&#10;• Urban greening strategies&#10;• Housing policy interventions&#10;• Healthcare resource allocation" style="text;strokeColor=none;fillColor=none;align=left;verticalAlign=middle;whiteSpace=wrap;rounded=0;fontSize=12;" parent="1" vertex="1">
                    <mxGeometry x="470" y="660" width="220" height="70" as="geometry"/>
                </mxCell>
                <mxCell id="vfWaW2UHl3x4KkC4JvXO-25" value="CLIMATE CHANGE CONTEXT" style="rounded=1;whiteSpace=wrap;html=1;fillColor=#f8cecc;strokeColor=#b85450;fontSize=14;fontStyle=1;" parent="1" vertex="1">
                    <mxGeometry x="710" y="590" width="220" height="60" as="geometry"/>
                </mxCell>
                <mxCell id="vfWaW2UHl3x4KkC4JvXO-26" value="• Accelerating warming trends&#10;• Increased extreme heat events&#10;• Urban heat island intensification&#10;• IPCC AR6 regional projections" style="text;strokeColor=none;fillColor=none;align=left;verticalAlign=middle;whiteSpace=wrap;rounded=0;fontSize=12;" parent="1" vertex="1">
                    <mxGeometry x="710" y="660" width="220" height="70" as="geometry"/>
                </mxCell>
                <mxCell id="vfWaW2UHl3x4KkC4JvXO-27" value="JOHANNESBURG CONTEXT" style="shape=process;whiteSpace=wrap;html=1;backgroundOutline=1;fillColor=#f5f5f5;strokeColor=#666666;fontColor=#333333;fontSize=12;fontStyle=1;" parent="1" vertex="1">
                    <mxGeometry x="230" y="740" width="700" height="30" as="geometry"/>
                </mxCell>
                <mxCell id="vfWaW2UHl3x4KkC4JvXO-28" style="edgeStyle=orthogonalEdgeStyle;rounded=0;orthogonalLoop=1;jettySize=auto;html=1;exitX=0.25;exitY=1;exitDx=0;exitDy=0;entryX=0.5;entryY=0;entryDx=0;entryDy=0;" parent="1" source="vfWaW2UHl3x4KkC4JvXO-2" target="vfWaW2UHl3x4KkC4JvXO-3" edge="1">
                    <mxGeometry relative="1" as="geometry"/>
                </mxCell>
                <mxCell id="vfWaW2UHl3x4KkC4JvXO-29" style="edgeStyle=orthogonalEdgeStyle;rounded=0;orthogonalLoop=1;jettySize=auto;html=1;exitX=0.5;exitY=1;exitDx=0;exitDy=0;entryX=0.5;entryY=0;entryDx=0;entryDy=0;" parent="1" source="vfWaW2UHl3x4KkC4JvXO-2" target="vfWaW2UHl3x4KkC4JvXO-4" edge="1">
                    <mxGeometry relative="1" as="geometry"/>
                </mxCell>
                <mxCell id="vfWaW2UHl3x4KkC4JvXO-30" style="edgeStyle=orthogonalEdgeStyle;rounded=0;orthogonalLoop=1;jettySize=auto;html=1;exitX=0.75;exitY=1;exitDx=0;exitDy=0;entryX=0.5;entryY=0;entryDx=0;entryDy=0;" parent="1" source="vfWaW2UHl3x4KkC4JvXO-2" target="vfWaW2UHl3x4KkC4JvXO-5" edge="1">
                    <mxGeometry relative="1" as="geometry"/>
                </mxCell>
                <mxCell id="vfWaW2UHl3x4KkC4JvXO-31" style="edgeStyle=orthogonalEdgeStyle;rounded=0;orthogonalLoop=1;jettySize=auto;html=1;exitX=0.5;exitY=1;exitDx=0;exitDy=0;entryX=0;entryY=0.5;entryDx=0;entryDy=0;" parent="1" source="vfWaW2UHl3x4KkC4JvXO-6" target="vfWaW2UHl3x4KkC4JvXO-10" edge="1">
                    <mxGeometry relative="1" as="geometry">
                        <Array as="points">
                            <mxPoint x="300" y="330"/>
                        </Array>
                    </mxGeometry>
                </mxCell>
                <mxCell id="vfWaW2UHl3x4KkC4JvXO-32" style="edgeStyle=orthogonalEdgeStyle;rounded=0;orthogonalLoop=1;jettySize=auto;html=1;exitX=0.5;exitY=1;exitDx=0;exitDy=0;entryX=0.5;entryY=0;entryDx=0;entryDy=0;" parent="1" source="vfWaW2UHl3x4KkC4JvXO-7" target="vfWaW2UHl3x4KkC4JvXO-10" edge="1">
                    <mxGeometry relative="1" as="geometry"/>
                </mxCell>
                <mxCell id="vfWaW2UHl3x4KkC4JvXO-33" style="edgeStyle=orthogonalEdgeStyle;rounded=0;orthogonalLoop=1;jettySize=auto;html=1;exitX=0.5;exitY=1;exitDx=0;exitDy=0;entryX=1;entryY=0.5;entryDx=0;entryDy=0;" parent="1" source="vfWaW2UHl3x4KkC4JvXO-8" target="vfWaW2UHl3x4KkC4JvXO-10" edge="1">
                    <mxGeometry relative="1" as="geometry">
                        <Array as="points">
                            <mxPoint x="860" y="330"/>
                        </Array>
                    </mxGeometry>
                </mxCell>
                <mxCell id="vfWaW2UHl3x4KkC4JvXO-34" style="edgeStyle=orthogonalEdgeStyle;rounded=0;orthogonalLoop=1;jettySize=auto;html=1;exitX=0.5;exitY=1;exitDx=0;exitDy=0;entryX=0.5;entryY=0;entryDx=0;entryDy=0;" parent="1" source="vfWaW2UHl3x4KkC4JvXO-13" target="vfWaW2UHl3x4KkC4JvXO-16" edge="1">
                    <mxGeometry relative="1" as="geometry"/>
                </mxCell>
                <mxCell id="vfWaW2UHl3x4KkC4JvXO-35" style="edgeStyle=orthogonalEdgeStyle;rounded=0;orthogonalLoop=1;jettySize=auto;html=1;exitX=0.155;exitY=1;exitDx=0;exitDy=0;entryX=0.5;entryY=0;entryDx=0;entryDy=0;exitPerimeter=0;" parent="1" source="vfWaW2UHl3x4KkC4JvXO-17" edge="1">
                    <mxGeometry relative="1" as="geometry"/>
                </mxCell>
                <mxCell id="vfWaW2UHl3x4KkC4JvXO-36" style="edgeStyle=orthogonalEdgeStyle;rounded=0;orthogonalLoop=1;jettySize=auto;html=1;exitX=0.5;exitY=1;exitDx=0;exitDy=0;entryX=0.5;entryY=0;entryDx=0;entryDy=0;" parent="1" source="vfWaW2UHl3x4KkC4JvXO-17" target="vfWaW2UHl3x4KkC4JvXO-23" edge="1">
                    <mxGeometry relative="1" as="geometry"/>
                </mxCell>
                <mxCell id="vfWaW2UHl3x4KkC4JvXO-37" style="edgeStyle=orthogonalEdgeStyle;rounded=0;orthogonalLoop=1;jettySize=auto;html=1;exitX=0.845;exitY=1;exitDx=0;exitDy=0;entryX=0.5;entryY=0;entryDx=0;entryDy=0;exitPerimeter=0;" parent="1" source="vfWaW2UHl3x4KkC4JvXO-17" target="vfWaW2UHl3x4KkC4JvXO-25" edge="1">
                    <mxGeometry relative="1" as="geometry"/>
                </mxCell>
                <mxCell id="vfWaW2UHl3x4KkC4JvXO-38" style="edgeStyle=orthogonalEdgeStyle;rounded=0;orthogonalLoop=1;jettySize=auto;html=1;exitX=0.5;exitY=1;exitDx=0;exitDy=0;entryX=0.143;entryY=0;entryDx=0;entryDy=0;entryPerimeter=0;" parent="1" source="vfWaW2UHl3x4KkC4JvXO-22" target="vfWaW2UHl3x4KkC4JvXO-27" edge="1">
                    <mxGeometry relative="1" as="geometry"/>
                </mxCell>
                <mxCell id="vfWaW2UHl3x4KkC4JvXO-39" style="edgeStyle=orthogonalEdgeStyle;rounded=0;orthogonalLoop=1;jettySize=auto;html=1;exitX=0.5;exitY=1;exitDx=0;exitDy=0;entryX=0.5;entryY=0;entryDx=0;entryDy=0;" parent="1" source="vfWaW2UHl3x4KkC4JvXO-24" target="vfWaW2UHl3x4KkC4JvXO-27" edge="1">
                    <mxGeometry relative="1" as="geometry"/>
                </mxCell>
                <mxCell id="vfWaW2UHl3x4KkC4JvXO-40" style="edgeStyle=orthogonalEdgeStyle;rounded=0;orthogonalLoop=1;jettySize=auto;html=1;exitX=0.5;exitY=1;exitDx=0;exitDy=0;entryX=0.857;entryY=0;entryDx=0;entryDy=0;entryPerimeter=0;" parent="1" source="vfWaW2UHl3x4KkC4JvXO-26" target="vfWaW2UHl3x4KkC4JvXO-27" edge="1">
                    <mxGeometry relative="1" as="geometry"/>
                </mxCell>
            </root>
        </mxGraphModel>
    </diagram>
    <diagram name="Page-4" id="1s-6tUK61qUZdVFBi8i0">
        <mxGraphModel dx="510" dy="428" grid="0" gridSize="10" guides="1" tooltips="1" connect="1" arrows="1" fold="1" page="1" pageScale="1" pageWidth="1169" pageHeight="827" background="#ffffff" math="0" shadow="0">
            <root>
                <mxCell id="0"/>
                <mxCell id="1" parent="0"/>
                <mxCell id="ZgDztdrt5lAhBoeaBknp-1" value="&#10;  &#10;    &#10;      &#10;        &#10;        &#10;        &#10;        &#10;        &#10;          &#10;        &#10;        &#10;        &#10;        &#10;          &#10;        &#10;        &#10;        &#10;          &#10;        &#10;        &#10;        &#10;          &#10;        &#10;        &#10;        &#10;          &#10;        &#10;        &#10;        &#10;        &#10;          &#10;        &#10;        &#10;        &#10;          &#10;        &#10;        &#10;        &#10;          &#10;        &#10;        &#10;        &#10;        &#10;          &#10;        &#10;        &#10;        &#10;        &#10;          &#10;        &#10;        &#10;        &#10;          &#10;        &#10;        &#10;        &#10;          &#10;        &#10;        &#10;        &#10;          &#10;        &#10;        &#10;        &#10;          &#10;        &#10;        &#10;        &#10;          &#10;        &#10;        &#10;        &#10;        &#10;          &#10;        &#10;        &#10;        &#10;        &#10;          &#10;        &#10;        &#10;        &#10;          &#10;        &#10;        &#10;        &#10;          &#10;            &#10;            &#10;          &#10;        &#10;        &#10;        &#10;          &#10;        &#10;        &#10;        &#10;          &#10;        &#10;        &#10;        &#10;          &#10;            &#10;            &#10;          &#10;        &#10;        &#10;        &#10;          &#10;        &#10;        &#10;        &#10;          &#10;        &#10;        &#10;        &#10;        &#10;          &#10;        &#10;        &#10;        &#10;          &#10;        &#10;        &#10;        &#10;        &#10;          &#10;        &#10;      &#10;    &#10;  &#10;&#10;        &#10;          &#10;        &#10;        &#10;        &#10;          &#10;        &#10;        &#10;          &#10;        &#10;        &#10;        &#10;          &#10;        &#10;        &#10;          &#10;        &#10;        &#10;        &#10;          &#10;        &#10;        &#10;        &#10;        &#10;          &#10;        &#10;        &#10;          &#10;        &#10;        &#10;          &#10;        &#10;        &#10;        &#10;          &#10;            &#10;              &#10;            &#10;          &#10;        &#10;        &#10;          &#10;        &#10;        &#10;          &#10;            &#10;              &#10;            &#10;          &#10;        &#10;        &#10;        &#10;          &#10;        &#10;        &#10;        &#10;          &#10;        &#10;        &#10;          &#10;        &#10;        &#10;          &#10;        &#10;        &#10;        &#10;          &#10;        &#10;        &#10;          &#10;        &#10;        &#10;          &#10;        &#10;      &#10;    &#10;  &#10;" style="text;whiteSpace=wrap;html=1;fontFamily=Tahoma;" parent="1" vertex="1">
                    <mxGeometry width="30" height="3050" as="geometry"/>
                </mxCell>
                <mxCell id="9PCZO-p81UgUTtYrjojA-1" value="&#10;  &#10;    &#10;      &#10;        &#10;        &#10;        &#10;        &#10;        &#10;          &#10;        &#10;        &#10;        &#10;        &#10;          &#10;        &#10;        &#10;        &#10;          &#10;        &#10;        &#10;        &#10;          &#10;        &#10;        &#10;        &#10;          &#10;        &#10;        &#10;        &#10;        &#10;          &#10;        &#10;        &#10;        &#10;          &#10;        &#10;        &#10;        &#10;          &#10;        &#10;        &#10;        &#10;        &#10;          &#10;        &#10;        &#10;        &#10;        &#10;          &#10;        &#10;        &#10;        &#10;          &#10;        &#10;        &#10;        &#10;          &#10;        &#10;        &#10;        &#10;          &#10;        &#10;        &#10;        &#10;          &#10;        &#10;        &#10;        &#10;          &#10;        &#10;        &#10;        &#10;        &#10;          &#10;        &#10;        &#10;        &#10;        &#10;          &#10;        &#10;        &#10;        &#10;          &#10;        &#10;        &#10;        &#10;          &#10;            &#10;            &#10;          &#10;        &#10;        &#10;        &#10;          &#10;        &#10;        &#10;        &#10;          &#10;        &#10;        &#10;        &#10;          &#10;            &#10;            &#10;          &#10;        &#10;        &#10;        &#10;          &#10;        &#10;        &#10;        &#10;          &#10;        &#10;        &#10;        &#10;        &#10;          &#10;        &#10;        &#10;        &#10;          &#10;        &#10;        &#10;        &#10;        &#10;          &#10;        &#10;      &#10;    &#10;  &#10;&#10;          &#10;        &#10;        &#10;        &#10;          &#10;        &#10;        &#10;          &#10;        &#10;        &#10;        &#10;          &#10;        &#10;        &#10;        &#10;        &#10;          &#10;        &#10;        &#10;          &#10;        &#10;        &#10;          &#10;        &#10;        &#10;        &#10;          &#10;            &#10;              &#10;            &#10;          &#10;        &#10;        &#10;          &#10;        &#10;        &#10;          &#10;            &#10;              &#10;            &#10;          &#10;        &#10;        &#10;        &#10;          &#10;        &#10;        &#10;        &#10;          &#10;        &#10;        &#10;          &#10;        &#10;        &#10;          &#10;        &#10;        &#10;        &#10;          &#10;        &#10;        &#10;          &#10;        &#10;        &#10;          &#10;        &#10;      &#10;    &#10;  &#10;" style="text;whiteSpace=wrap;html=1;fontFamily=Tahoma;" parent="1" vertex="1">
                    <mxGeometry width="30" height="2930" as="geometry"/>
                </mxCell>
                <mxCell id="qzPox6_nOAjFGzBAiWsM-1" value="&lt;mxfile host=&quot;app.diagrams.net&quot; modified=&quot;2025-04-23T09:46:00.000Z&quot; agent=&quot;Cascade&quot; version=&quot;21.7.5&quot; type=&quot;device&quot;&gt;&#10;  &lt;diagram id=&quot;framework_v4&quot; name=&quot;Conceptual Framework&quot;&gt;&#10;    &lt;mxgraphmodel dx=&quot;1200&quot; dy=&quot;800&quot; grid=&quot;1&quot; gridsize=&quot;10&quot; guides=&quot;1&quot; tooltips=&quot;1&quot; connect=&quot;1&quot; arrows=&quot;1&quot; fold=&quot;1&quot; page=&quot;1&quot; pagescale=&quot;1&quot; pagewidth=&quot;1100&quot; pageheight=&quot;850&quot; background=&quot;#ffffff&quot;&gt;&#10;      &lt;root&gt;&#10;        &lt;mxcell id=&quot;0&quot;&gt;&#10;        &lt;mxcell id=&quot;1&quot; parent=&quot;0&quot;&gt;&#10;        &#10;        &lt;!-- Title --&gt;&#10;        &lt;mxcell id=&quot;title&quot; value=&quot;Urban Heat Vulnerability Analysis: Conceptual Framework&quot; style=&quot;text;fontSize=20;fontStyle=1;align=center;verticalAlign=middle;fontColor=#006666;spacingTop=0;spacingBottom=0;html=1;&quot; vertex=&quot;1&quot; parent=&quot;1&quot;&gt;&#10;          &lt;mxgeometry x=&quot;150&quot; y=&quot;30&quot; width=&quot;800&quot; height=&quot;40&quot; as=&quot;geometry&quot;&gt;&#10;        &lt;/mxgeometry&gt;&lt;/mxcell&gt;&#10;        &#10;        &lt;!-- Vulnerability Components with Arrows --&gt;&#10;        &lt;mxcell id=&quot;components&quot; value=&quot;VULNERABILITY COMPONENTS&quot; style=&quot;text;fontSize=16;fontStyle=1;align=center;spacingTop=0;spacingBottom=0;html=1;fontColor=#333333&quot; vertex=&quot;1&quot; parent=&quot;1&quot;&gt;&#10;          &lt;mxgeometry x=&quot;150&quot; y=&quot;90&quot; width=&quot;800&quot; height=&quot;30&quot; as=&quot;geometry&quot;&gt;&#10;        &lt;/mxgeometry&gt;&lt;/mxcell&gt;&#10;        &#10;        &lt;mxcell id=&quot;exposure&quot; value=&quot;EXPOSURE&quot; style=&quot;rounded=1;whiteSpace=wrap;html=1;fillColor=#f8cecc;strokeColor=#b85450;fontSize=14;fontStyle=1;shadow=0;glass=0;&quot; vertex=&quot;1&quot; parent=&quot;1&quot;&gt;&#10;          &lt;mxgeometry x=&quot;150&quot; y=&quot;130&quot; width=&quot;240&quot; height=&quot;50&quot; as=&quot;geometry&quot;&gt;&#10;        &lt;/mxgeometry&gt;&lt;/mxcell&gt;&#10;        &#10;        &lt;mxcell id=&quot;sensitivity&quot; value=&quot;SENSITIVITY&quot; style=&quot;rounded=1;whiteSpace=wrap;html=1;fillColor=#fff2cc;strokeColor=#d6b656;fontSize=14;fontStyle=1;&quot; vertex=&quot;1&quot; parent=&quot;1&quot;&gt;&#10;          &lt;mxgeometry x=&quot;430&quot; y=&quot;130&quot; width=&quot;240&quot; height=&quot;50&quot; as=&quot;geometry&quot;&gt;&#10;        &lt;/mxgeometry&gt;&lt;/mxcell&gt;&#10;        &#10;        &lt;mxcell id=&quot;adaptive&quot; value=&quot;ADAPTIVE CAPACITY&quot; style=&quot;rounded=1;whiteSpace=wrap;html=1;fillColor=#d5e8d4;strokeColor=#82b366;fontSize=14;fontStyle=1;&quot; vertex=&quot;1&quot; parent=&quot;1&quot;&gt;&#10;          &lt;mxgeometry x=&quot;710&quot; y=&quot;130&quot; width=&quot;240&quot; height=&quot;50&quot; as=&quot;geometry&quot;&gt;&#10;        &lt;/mxgeometry&gt;&lt;/mxcell&gt;&#10;        &#10;        &lt;!-- Factors for each component --&gt;&#10;        &lt;mxcell id=&quot;exposure_factors&quot; value=&quot;• Urban Heat Islands\n• Land Surface Temperature\n• Vegetation Index\n• Impervious Surface\n• Building Density&quot; style=&quot;text;fillColor=none;align=left;verticalAlign=top;fontSize=13;fontColor=#333333;spacingLeft=10;spacingTop=5;&quot; vertex=&quot;1&quot; parent=&quot;1&quot;&gt;&#10;          &lt;mxgeometry x=&quot;150&quot; y=&quot;190&quot; width=&quot;240&quot; height=&quot;100&quot; as=&quot;geometry&quot;&gt;&#10;        &lt;/mxgeometry&gt;&lt;/mxcell&gt;&#10;        &#10;        &lt;mxcell id=&quot;sensitivity_factors&quot; value=&quot;• Age Demographics\n• Pre-existing Health Conditions\n• Comorbidities\n• Physiological Factors\n• Health Inequalities&quot; style=&quot;text;fillColor=none;align=left;verticalAlign=top;fontSize=13;fontColor=#333333;spacingLeft=10;spacingTop=5;&quot; vertex=&quot;1&quot; parent=&quot;1&quot;&gt;&#10;          &lt;mxgeometry x=&quot;430&quot; y=&quot;190&quot; width=&quot;240&quot; height=&quot;100&quot; as=&quot;geometry&quot;&gt;&#10;        &lt;/mxgeometry&gt;&lt;/mxcell&gt;&#10;        &#10;        &lt;mxcell id=&quot;adaptive_factors&quot; value=&quot;• Air Conditioning Access\n• Housing Quality\n• Healthcare Access\n• Green Space Proximity\n• Income Levels&quot; style=&quot;text;fillColor=none;align=left;verticalAlign=top;fontSize=13;fontColor=#333333;spacingLeft=10;spacingTop=5;&quot; vertex=&quot;1&quot; parent=&quot;1&quot;&gt;&#10;          &lt;mxgeometry x=&quot;710&quot; y=&quot;190&quot; width=&quot;240&quot; height=&quot;100&quot; as=&quot;geometry&quot;&gt;&#10;        &lt;/mxgeometry&gt;&lt;/mxcell&gt;&#10;        &#10;        &lt;!-- Analytical Lenses Header --&gt;&#10;        &lt;mxcell id=&quot;lenses_header&quot; value=&quot;ANALYTICAL LENSES&quot; style=&quot;text;fontSize=16;fontStyle=1;align=center;spacingTop=0;spacingBottom=0;html=1;fontColor=#333333&quot; vertex=&quot;1&quot; parent=&quot;1&quot;&gt;&#10;          &lt;mxgeometry x=&quot;150&quot; y=&quot;310&quot; width=&quot;800&quot; height=&quot;30&quot; as=&quot;geometry&quot;&gt;&#10;        &lt;/mxgeometry&gt;&lt;/mxcell&gt;&#10;        &#10;        &lt;!-- Three lenses --&gt;&#10;        &lt;mxcell id=&quot;lens1&quot; value=&quot;INFRASTRUCTURAL JUSTICE&quot; style=&quot;ellipse;whiteSpace=wrap;html=1;fillColor=#e1d5e7;strokeColor=#9673a6;fontSize=14;fontStyle=1;shadow=0;&quot; vertex=&quot;1&quot; parent=&quot;1&quot;&gt;&#10;          &lt;mxgeometry x=&quot;150&quot; y=&quot;350&quot; width=&quot;240&quot; height=&quot;60&quot; as=&quot;geometry&quot;&gt;&#10;        &lt;/mxgeometry&gt;&lt;/mxcell&gt;&#10;        &#10;        &lt;mxcell id=&quot;lens1_desc&quot; value=&quot;• Unequal access to protective infrastructure\n• Spatial disparities in urban development&quot; style=&quot;text;fillColor=none;align=center;verticalAlign=top;fontSize=13;fontColor=#333333;spacingTop=5;&quot; vertex=&quot;1&quot; parent=&quot;1&quot;&gt;&#10;          &lt;mxgeometry x=&quot;150&quot; y=&quot;420&quot; width=&quot;240&quot; height=&quot;50&quot; as=&quot;geometry&quot;&gt;&#10;        &lt;/mxgeometry&gt;&lt;/mxcell&gt;&#10;        &#10;        &lt;mxcell id=&quot;lens2&quot; value=&quot;CLIMATE RESILIENCE&quot; style=&quot;ellipse;whiteSpace=wrap;html=1;fillColor=#dae8fc;strokeColor=#6c8ebf;fontSize=14;fontStyle=1;shadow=0;&quot; vertex=&quot;1&quot; parent=&quot;1&quot;&gt;&#10;          &lt;mxgeometry x=&quot;430&quot; y=&quot;350&quot; width=&quot;240&quot; height=&quot;60&quot; as=&quot;geometry&quot;&gt;&#10;        &lt;/mxgeometry&gt;&lt;/mxcell&gt;&#10;        &#10;        &lt;mxcell id=&quot;lens2_desc&quot; value=&quot;• Adaptive capacity building\n• Climate-ready urban planning&quot; style=&quot;text;fillColor=none;align=center;verticalAlign=top;fontSize=13;fontColor=#333333;spacingTop=5;&quot; vertex=&quot;1&quot; parent=&quot;1&quot;&gt;&#10;          &lt;mxgeometry x=&quot;430&quot; y=&quot;420&quot; width=&quot;240&quot; height=&quot;50&quot; as=&quot;geometry&quot;&gt;&#10;        &lt;/mxgeometry&gt;&lt;/mxcell&gt;&#10;        &#10;        &lt;mxcell id=&quot;lens3&quot; value=&quot;HEALTH EQUITY&quot; style=&quot;ellipse;whiteSpace=wrap;html=1;fillColor=#fff2cc;strokeColor=#d6b656;fontSize=14;fontStyle=1;shadow=0;&quot; vertex=&quot;1&quot; parent=&quot;1&quot;&gt;&#10;          &lt;mxgeometry x=&quot;710&quot; y=&quot;350&quot; width=&quot;240&quot; height=&quot;60&quot; as=&quot;geometry&quot;&gt;&#10;        &lt;/mxgeometry&gt;&lt;/mxcell&gt;&#10;        &#10;        &lt;mxcell id=&quot;lens3_desc&quot; value=&quot;• Differential health outcomes\n• Identifying vulnerable populations&quot; style=&quot;text;fillColor=none;align=center;verticalAlign=top;fontSize=13;fontColor=#333333;spacingTop=5;&quot; vertex=&quot;1&quot; parent=&quot;1&quot;&gt;&#10;          &lt;mxgeometry x=&quot;710&quot; y=&quot;420&quot; width=&quot;240&quot; height=&quot;50&quot; as=&quot;geometry&quot;&gt;&#10;        &lt;/mxgeometry&gt;&lt;/mxcell&gt;&#10;        &#10;        &lt;!-- Research Phases Header --&gt;&#10;        &lt;mxcell id=&quot;phases_header&quot; value=&quot;RESEARCH PHASES&quot; style=&quot;text;fontSize=16;fontStyle=1;align=center;spacingTop=0;spacingBottom=0;html=1;fontColor=#333333&quot; vertex=&quot;1&quot; parent=&quot;1&quot;&gt;&#10;          &lt;mxgeometry x=&quot;150&quot; y=&quot;490&quot; width=&quot;800&quot; height=&quot;30&quot; as=&quot;geometry&quot;&gt;&#10;        &lt;/mxgeometry&gt;&lt;/mxcell&gt;&#10;        &#10;        &lt;!-- Research Phases with Arrows --&gt;&#10;        &lt;mxcell id=&quot;phase1&quot; value=&quot;1. VULNERABILITY MAPPING&quot; style=&quot;rounded=1;whiteSpace=wrap;html=1;fillColor=#f8cecc;strokeColor=#b85450;fontSize=14;fontStyle=1;&quot; vertex=&quot;1&quot; parent=&quot;1&quot;&gt;&#10;          &lt;mxgeometry x=&quot;150&quot; y=&quot;530&quot; width=&quot;240&quot; height=&quot;50&quot; as=&quot;geometry&quot;&gt;&#10;        &lt;/mxgeometry&gt;&lt;/mxcell&gt;&#10;        &#10;        &lt;mxcell id=&quot;phase1_desc&quot; value=&quot;Spatial analysis of heat vulnerability patterns across Johannesburg&quot; style=&quot;text;fillColor=none;align=center;verticalAlign=top;fontSize=13;fontColor=#333333;spacingTop=5;&quot; vertex=&quot;1&quot; parent=&quot;1&quot;&gt;&#10;          &lt;mxgeometry x=&quot;150&quot; y=&quot;590&quot; width=&quot;240&quot; height=&quot;50&quot; as=&quot;geometry&quot;&gt;&#10;        &lt;/mxgeometry&gt;&lt;/mxcell&gt;&#10;        &#10;        &lt;mxcell id=&quot;arrow1&quot; value=&quot;&quot; style=&quot;endArrow=block;html=1;rounded=0;entryX=0;entryY=0.5;entryDx=0;entryDy=0;exitX=1;exitY=0.5;exitDx=0;exitDy=0;endFill=1;strokeWidth=2;strokeColor=#666666;&quot; edge=&quot;1&quot; parent=&quot;1&quot; source=&quot;phase1&quot; target=&quot;phase2&quot;&gt;&#10;          &lt;mxgeometry width=&quot;50&quot; height=&quot;50&quot; relative=&quot;1&quot; as=&quot;geometry&quot;&gt;&#10;            &lt;mxpoint x=&quot;390&quot; y=&quot;555&quot; as=&quot;sourcePoint&quot;&gt;&#10;            &lt;mxpoint x=&quot;430&quot; y=&quot;555&quot; as=&quot;targetPoint&quot;&gt;&#10;          &lt;/mxpoint&gt;&lt;/mxpoint&gt;&lt;/mxgeometry&gt;&#10;        &lt;/mxcell&gt;&#10;        &#10;        &lt;mxcell id=&quot;phase2&quot; value=&quot;2. CAUSAL ANALYSIS&quot; style=&quot;rounded=1;whiteSpace=wrap;html=1;fillColor=#fff2cc;strokeColor=#d6b656;fontSize=14;fontStyle=1;&quot; vertex=&quot;1&quot; parent=&quot;1&quot;&gt;&#10;          &lt;mxgeometry x=&quot;430&quot; y=&quot;530&quot; width=&quot;240&quot; height=&quot;50&quot; as=&quot;geometry&quot;&gt;&#10;        &lt;/mxgeometry&gt;&lt;/mxcell&gt;&#10;        &#10;        &lt;mxcell id=&quot;phase2_desc&quot; value=&quot;Identifying mechanisms driving heat-health outcomes through causal inference&quot; style=&quot;text;fillColor=none;align=center;verticalAlign=top;fontSize=13;fontColor=#333333;spacingTop=5;&quot; vertex=&quot;1&quot; parent=&quot;1&quot;&gt;&#10;          &lt;mxgeometry x=&quot;430&quot; y=&quot;590&quot; width=&quot;240&quot; height=&quot;50&quot; as=&quot;geometry&quot;&gt;&#10;        &lt;/mxgeometry&gt;&lt;/mxcell&gt;&#10;        &#10;        &lt;mxcell id=&quot;arrow2&quot; value=&quot;&quot; style=&quot;endArrow=block;html=1;rounded=0;entryX=0;entryY=0.5;entryDx=0;entryDy=0;exitX=1;exitY=0.5;exitDx=0;exitDy=0;endFill=1;strokeWidth=2;strokeColor=#666666;&quot; edge=&quot;1&quot; parent=&quot;1&quot; source=&quot;phase2&quot; target=&quot;phase3&quot;&gt;&#10;          &lt;mxgeometry width=&quot;50&quot; height=&quot;50&quot; relative=&quot;1&quot; as=&quot;geometry&quot;&gt;&#10;            &lt;mxpoint x=&quot;670&quot; y=&quot;555&quot; as=&quot;sourcePoint&quot;&gt;&#10;            &lt;mxpoint x=&quot;710&quot; y=&quot;555&quot; as=&quot;targetPoint&quot;&gt;&#10;          &lt;/mxpoint&gt;&lt;/mxpoint&gt;&lt;/mxgeometry&gt;&#10;        &lt;/mxcell&gt;&#10;        &#10;        &lt;mxcell id=&quot;phase3&quot; value=&quot;3. PREDICTIVE MODELING&quot; style=&quot;rounded=1;whiteSpace=wrap;html=1;fillColor=#d5e8d4;strokeColor=#82b366;fontSize=14;fontStyle=1;&quot; vertex=&quot;1&quot; parent=&quot;1&quot;&gt;&#10;          &lt;mxgeometry x=&quot;710&quot; y=&quot;530&quot; width=&quot;240&quot; height=&quot;50&quot; as=&quot;geometry&quot;&gt;&#10;        &lt;/mxgeometry&gt;&lt;/mxcell&gt;&#10;        &#10;        &lt;mxcell id=&quot;phase3_desc&quot; value=&quot;Forecasting heat-health risks and identifying critical thresholds&quot; style=&quot;text;fillColor=none;align=center;verticalAlign=top;fontSize=13;fontColor=#333333;spacingTop=5;&quot; vertex=&quot;1&quot; parent=&quot;1&quot;&gt;&#10;          &lt;mxgeometry x=&quot;710&quot; y=&quot;590&quot; width=&quot;240&quot; height=&quot;50&quot; as=&quot;geometry&quot;&gt;&#10;        &lt;/mxgeometry&gt;&lt;/mxcell&gt;&#10;        &#10;        &lt;!-- Methodological Approaches --&gt;&#10;        &lt;mxcell id=&quot;methods_header&quot; value=&quot;KEY METHODOLOGICAL APPROACHES&quot; style=&quot;text;fontSize=16;fontStyle=1;align=center;spacingTop=0;spacingBottom=0;html=1;fontColor=#333333&quot; vertex=&quot;1&quot; parent=&quot;1&quot;&gt;&#10;          &lt;mxgeometry x=&quot;150&quot; y=&quot;660&quot; width=&quot;800&quot; height=&quot;30&quot; as=&quot;geometry&quot;&gt;&#10;        &lt;/mxgeometry&gt;&lt;/mxcell&gt;&#10;        &#10;        &lt;mxcell id=&quot;methods&quot; value=&quot;• Geographically Weighted Principal Component Analysis (GW-PCA)\n• Causal Machine Learning (PC Algorithm, Double Machine Learning)\n• Spatio-temporal Distributed Lag Non-linear Models (DLNM)\n• Ensemble Prediction with Uncertainty Quantification&quot; style=&quot;text;fillColor=none;align=left;verticalAlign=top;fontSize=13;fontColor=#333333;spacingLeft=0;spacingTop=5;whiteSpace=wrap;&quot; vertex=&quot;1&quot; parent=&quot;1&quot;&gt;&#10;          &lt;mxgeometry x=&quot;150&quot; y=&quot;700&quot; width=&quot;800&quot; height=&quot;80&quot; as=&quot;geometry&quot;&gt;&#10;        &lt;/mxgeometry&gt;&lt;/mxcell&gt;&#10;        &#10;        &lt;!-- Note on Scope --&gt;&#10;        &lt;mxcell id=&quot;scope_note&quot; value=&quot;Note: This research focuses on understanding vulnerability patterns, causal mechanisms, and predictive capabilities.\nThe development and implementation of interventions falls outside the scope of this PhD.&quot; style=&quot;text;fillColor=#f5f5f5;align=center;verticalAlign=middle;fontSize=13;fontColor=#333333;strokeColor=#666666;rounded=1;fontStyle=2;&quot; vertex=&quot;1&quot; parent=&quot;1&quot;&gt;&#10;          &lt;mxgeometry x=&quot;150&quot; y=&quot;790&quot; width=&quot;800&quot; height=&quot;40&quot; as=&quot;geometry&quot;&gt;&#10;        &lt;/mxgeometry&gt;&lt;/mxcell&gt;&#10;      &lt;/mxcell&gt;&lt;/mxcell&gt;&lt;/root&gt;&#10;    &lt;/mxgraphmodel&gt;&#10;  &lt;/diagram&gt;&#10;&lt;/mxfile&gt;&#10;          &lt;mxgeometry x=&quot;470&quot; y=&quot;660&quot; width=&quot;220&quot; height=&quot;70&quot; as=&quot;geometry&quot;&gt;&#10;        &#10;        &lt;!-- Climate Change Context --&gt;&#10;        &lt;mxcell id=&quot;climate_change&quot; value=&quot;CLIMATE CHANGE CONTEXT&quot; style=&quot;rounded=1;whiteSpace=wrap;html=1;fillColor=#f8cecc;strokeColor=#b85450;fontSize=14;fontStyle=1;&quot; vertex=&quot;1&quot; parent=&quot;1&quot;&gt;&#10;          &lt;mxgeometry x=&quot;710&quot; y=&quot;590&quot; width=&quot;220&quot; height=&quot;60&quot; as=&quot;geometry&quot;&gt;&#10;        &lt;/mxgeometry&gt;&lt;/mxcell&gt;&#10;        &lt;mxcell id=&quot;climate_desc&quot; value=&quot;• Accelerating warming trends&#10;• Increased extreme heat events&#10;• Urban heat island intensification&#10;• IPCC AR6 regional projections&quot; style=&quot;text;strokeColor=none;fillColor=none;align=left;verticalAlign=middle;whiteSpace=wrap;rounded=0;fontSize=12;&quot; vertex=&quot;1&quot; parent=&quot;1&quot;&gt;&#10;          &lt;mxgeometry x=&quot;710&quot; y=&quot;660&quot; width=&quot;220&quot; height=&quot;70&quot; as=&quot;geometry&quot;&gt;&#10;        &lt;/mxgeometry&gt;&lt;/mxcell&gt;&#10;        &lt;!-- Contextual Influences --&gt;&#10;        &lt;mxcell id=&quot;johannesburg&quot; value=&quot;JOHANNESBURG CONTEXT&quot; style=&quot;shape=process;whiteSpace=wrap;html=1;backgroundOutline=1;fillColor=#f5f5f5;strokeColor=#666666;fontColor=#333333;fontSize=12;fontStyle=1;&quot; vertex=&quot;1&quot; parent=&quot;1&quot;&gt;&#10;          &lt;mxgeometry x=&quot;230&quot; y=&quot;740&quot; width=&quot;700&quot; height=&quot;30&quot; as=&quot;geometry&quot;&gt;&#10;        &lt;/mxgeometry&gt;&lt;/mxcell&gt;&#10;        &lt;!-- Connectors --&gt;&#10;        &lt;!-- Historical Context to Vulnerability Components --&gt;&#10;        &lt;mxcell id=&quot;arrow1&quot; style=&quot;edgeStyle=orthogonalEdgeStyle;rounded=0;orthogonalLoop=1;jettySize=auto;html=1;exitX=0.25;exitY=1;exitDx=0;exitDy=0;entryX=0.5;entryY=0;entryDx=0;entryDy=0;&quot; edge=&quot;1&quot; parent=&quot;1&quot; source=&quot;historical_context&quot; target=&quot;exposure&quot;&gt;&#10;          &lt;mxgeometry relative=&quot;1&quot; as=&quot;geometry&quot;&gt;&#10;        &lt;/mxgeometry&gt;&lt;/mxcell&gt;&#10;        &lt;mxcell id=&quot;arrow2&quot; style=&quot;edgeStyle=orthogonalEdgeStyle;rounded=0;orthogonalLoop=1;jettySize=auto;html=1;exitX=0.5;exitY=1;exitDx=0;exitDy=0;entryX=0.5;entryY=0;entryDx=0;entryDy=0;&quot; edge=&quot;1&quot; parent=&quot;1&quot; source=&quot;historical_context&quot; target=&quot;sensitivity&quot;&gt;&#10;          &lt;mxgeometry relative=&quot;1&quot; as=&quot;geometry&quot;&gt;&#10;        &lt;/mxgeometry&gt;&lt;/mxcell&gt;&#10;        &lt;mxcell id=&quot;arrow3&quot; style=&quot;edgeStyle=orthogonalEdgeStyle;rounded=0;orthogonalLoop=1;jettySize=auto;html=1;exitX=0.75;exitY=1;exitDx=0;exitDy=0;entryX=0.5;entryY=0;entryDx=0;entryDy=0;&quot; edge=&quot;1&quot; parent=&quot;1&quot; source=&quot;historical_context&quot; target=&quot;adaptive_capacity&quot;&gt;&#10;          &lt;mxgeometry relative=&quot;1&quot; as=&quot;geometry&quot;&gt;&#10;        &lt;/mxgeometry&gt;&lt;/mxcell&gt;&#10;        &lt;!-- Vulnerability Components to Infrastructural Justice --&gt;&#10;        &lt;mxcell id=&quot;arrow4&quot; style=&quot;edgeStyle=orthogonalEdgeStyle;rounded=0;orthogonalLoop=1;jettySize=auto;html=1;exitX=0.5;exitY=1;exitDx=0;exitDy=0;entryX=0;entryY=0.5;entryDx=0;entryDy=0;&quot; edge=&quot;1&quot; parent=&quot;1&quot; source=&quot;exp_factors&quot; target=&quot;infrastructural_justice&quot;&gt;&#10;          &lt;mxgeometry relative=&quot;1&quot; as=&quot;geometry&quot;&gt;&#10;            &lt;array as=&quot;points&quot;&gt;&#10;              &lt;mxpoint x=&quot;300&quot; y=&quot;330&quot;&gt;&#10;            &lt;/mxpoint&gt;&lt;/array&gt;&#10;          &lt;/mxgeometry&gt;&#10;        &lt;/mxcell&gt;&#10;        &lt;mxcell id=&quot;arrow5&quot; style=&quot;edgeStyle=orthogonalEdgeStyle;rounded=0;orthogonalLoop=1;jettySize=auto;html=1;exitX=0.5;exitY=1;exitDx=0;exitDy=0;entryX=0.5;entryY=0;entryDx=0;entryDy=0;&quot; edge=&quot;1&quot; parent=&quot;1&quot; source=&quot;sens_factors&quot; target=&quot;infrastructural_justice&quot;&gt;&#10;          &lt;mxgeometry relative=&quot;1&quot; as=&quot;geometry&quot;&gt;&#10;        &lt;/mxgeometry&gt;&lt;/mxcell&gt;&#10;        &lt;mxcell id=&quot;arrow6&quot; style=&quot;edgeStyle=orthogonalEdgeStyle;rounded=0;orthogonalLoop=1;jettySize=auto;html=1;exitX=0.5;exitY=1;exitDx=0;exitDy=0;entryX=1;entryY=0.5;entryDx=0;entryDy=0;&quot; edge=&quot;1&quot; parent=&quot;1&quot; source=&quot;adapt_factors&quot; target=&quot;infrastructural_justice&quot;&gt;&#10;          &lt;mxgeometry relative=&quot;1&quot; as=&quot;geometry&quot;&gt;&#10;            &lt;array as=&quot;points&quot;&gt;&#10;              &lt;mxpoint x=&quot;860&quot; y=&quot;330&quot;&gt;&#10;            &lt;/mxpoint&gt;&lt;/array&gt;&#10;          &lt;/mxgeometry&gt;&#10;        &lt;/mxcell&gt;&#10;        &lt;!-- Infrastructural Justice to Analytical Approach --&gt;&#10;        &lt;mxcell id=&quot;arrow7&quot; style=&quot;edgeStyle=orthogonalEdgeStyle;rounded=0;orthogonalLoop=1;jettySize=auto;html=1;exitX=0.5;exitY=1;exitDx=0;exitDy=0;entryX=0.5;entryY=0;entryDx=0;entryDy=0;&quot; edge=&quot;1&quot; parent=&quot;1&quot; source=&quot;justice_desc&quot; target=&quot;analytical_approach&quot;&gt;&#10;          &lt;mxgeometry relative=&quot;1&quot; as=&quot;geometry&quot;&gt;&#10;        &lt;/mxgeometry&gt;&lt;/mxcell&gt;&#10;        &lt;!-- Analytical Approach to Outcomes --&gt;&#10;        &lt;mxcell id=&quot;arrow8&quot; style=&quot;edgeStyle=orthogonalEdgeStyle;rounded=0;orthogonalLoop=1;jettySize=auto;html=1;exitX=0.155;exitY=1;exitDx=0;exitDy=0;entryX=0.5;entryY=0;entryDx=0;entryDy=0;exitPerimeter=0;&quot; edge=&quot;1&quot; parent=&quot;1&quot; source=&quot;approach_methods&quot; target=&quot;outcomes&quot;&gt;&#10;          &lt;mxgeometry relative=&quot;1&quot; as=&quot;geometry&quot;&gt;&#10;        &lt;/mxgeometry&gt;&lt;/mxcell&gt;&#10;        &lt;mxcell id=&quot;arrow9&quot; style=&quot;edgeStyle=orthogonalEdgeStyle;rounded=0;orthogonalLoop=1;jettySize=auto;html=1;exitX=0.5;exitY=1;exitDx=0;exitDy=0;entryX=0.5;entryY=0;entryDx=0;entryDy=0;&quot; edge=&quot;1&quot; parent=&quot;1&quot; source=&quot;approach_methods&quot; target=&quot;policy&quot;&gt;&#10;          &lt;mxgeometry relative=&quot;1&quot; as=&quot;geometry&quot;&gt;&#10;        &lt;/mxgeometry&gt;&lt;/mxcell&gt;&#10;        &lt;mxcell id=&quot;arrow10&quot; style=&quot;edgeStyle=orthogonalEdgeStyle;rounded=0;orthogonalLoop=1;jettySize=auto;html=1;exitX=0.845;exitY=1;exitDx=0;exitDy=0;entryX=0.5;entryY=0;entryDx=0;entryDy=0;exitPerimeter=0;&quot; edge=&quot;1&quot; parent=&quot;1&quot; source=&quot;approach_methods&quot; target=&quot;climate_change&quot;&gt;&#10;          &lt;mxgeometry relative=&quot;1&quot; as=&quot;geometry&quot;&gt;&#10;        &lt;/mxgeometry&gt;&lt;/mxcell&gt;&#10;        &lt;!-- Outcome elements to Johannesburg Context --&gt;&#10;        &lt;mxcell id=&quot;arrow11&quot; style=&quot;edgeStyle=orthogonalEdgeStyle;rounded=0;orthogonalLoop=1;jettySize=auto;html=1;exitX=0.5;exitY=1;exitDx=0;exitDy=0;entryX=0.143;entryY=0;entryDx=0;entryDy=0;entryPerimeter=0;&quot; edge=&quot;1&quot; parent=&quot;1&quot; source=&quot;outcome_desc&quot; target=&quot;johannesburg&quot;&gt;&#10;          &lt;mxgeometry relative=&quot;1&quot; as=&quot;geometry&quot;&gt;&#10;        &lt;/mxgeometry&gt;&lt;/mxcell&gt;&#10;        &lt;mxcell id=&quot;arrow12&quot; style=&quot;edgeStyle=orthogonalEdgeStyle;rounded=0;orthogonalLoop=1;jettySize=auto;html=1;exitX=0.5;exitY=1;exitDx=0;exitDy=0;entryX=0.5;entryY=0;entryDx=0;entryDy=0;&quot; edge=&quot;1&quot; parent=&quot;1&quot; source=&quot;policy_desc&quot; target=&quot;johannesburg&quot;&gt;&#10;          &lt;mxgeometry relative=&quot;1&quot; as=&quot;geometry&quot;&gt;&#10;        &lt;/mxgeometry&gt;&lt;/mxcell&gt;&#10;        &lt;mxcell id=&quot;arrow13&quot; style=&quot;edgeStyle=orthogonalEdgeStyle;rounded=0;orthogonalLoop=1;jettySize=auto;html=1;exitX=0.5;exitY=1;exitDx=0;exitDy=0;entryX=0.857;entryY=0;entryDx=0;entryDy=0;entryPerimeter=0;&quot; edge=&quot;1&quot; parent=&quot;1&quot; source=&quot;climate_desc&quot; target=&quot;johannesburg&quot;&gt;&#10;          &lt;mxgeometry relative=&quot;1&quot; as=&quot;geometry&quot;&gt;&#10;        &lt;/mxgeometry&gt;&lt;/mxcell&gt;&#10;      &#10;    &#10;  &#10;&lt;/mxgeometry&gt;" style="text;whiteSpace=wrap;html=1;fontFamily=Tahoma;" vertex="1" parent="1">
                    <mxGeometry width="30" height="2930" as="geometry"/>
                </mxCell>
                <mxCell id="qzPox6_nOAjFGzBAiWsM-2" value="&lt;!--[CDATA[&lt;mxfile host=&quot;app.diagrams.net&quot; modified=&quot;2025-04-23T10:00:00.000Z&quot; agent=&quot;Cascade&quot; version=&quot;21.7.5&quot; type=&quot;device&quot;--&gt;&#10;  &lt;diagram id=&quot;framework_v4&quot; name=&quot;Conceptual Framework&quot;&gt;&#10;    &lt;mxgraphmodel dx=&quot;1200&quot; dy=&quot;800&quot; grid=&quot;1&quot; gridsize=&quot;10&quot; guides=&quot;1&quot; tooltips=&quot;1&quot; connect=&quot;1&quot; arrows=&quot;1&quot; fold=&quot;1&quot; page=&quot;1&quot; pagescale=&quot;1&quot; pagewidth=&quot;1100&quot; pageheight=&quot;850&quot; background=&quot;#ffffff&quot;&gt;&#10;      &lt;root&gt;&#10;        &lt;mxcell id=&quot;0&quot;&gt;&#10;        &lt;mxcell id=&quot;1&quot; parent=&quot;0&quot;&gt;&#10;        &#10;        &lt;!-- Title --&gt;&#10;        &lt;mxcell id=&quot;title&quot; value=&quot;Urban Heat Vulnerability Analysis: Conceptual Framework&quot; style=&quot;text;fontSize=20;fontStyle=1;align=center;verticalAlign=middle;fontColor=#006666;spacingTop=0;spacingBottom=0;html=1;&quot; vertex=&quot;1&quot; parent=&quot;1&quot;&gt;&#10;          &lt;mxgeometry x=&quot;150&quot; y=&quot;30&quot; width=&quot;800&quot; height=&quot;40&quot; as=&quot;geometry&quot;&gt;&#10;        &lt;/mxgeometry&gt;&lt;/mxcell&gt;&#10;        &#10;        &lt;!-- Vulnerability Components with Arrows --&gt;&#10;        &lt;mxcell id=&quot;components&quot; value=&quot;VULNERABILITY COMPONENTS&quot; style=&quot;text;fontSize=16;fontStyle=1;align=center;spacingTop=0;spacingBottom=0;html=1;fontColor=#333333&quot; vertex=&quot;1&quot; parent=&quot;1&quot;&gt;&#10;          &lt;mxgeometry x=&quot;150&quot; y=&quot;90&quot; width=&quot;800&quot; height=&quot;30&quot; as=&quot;geometry&quot;&gt;&#10;        &lt;/mxgeometry&gt;&lt;/mxcell&gt;&#10;        &#10;        &lt;mxcell id=&quot;exposure&quot; value=&quot;EXPOSURE&quot; style=&quot;rounded=1;whiteSpace=wrap;html=1;fillColor=#f8cecc;strokeColor=#b85450;fontSize=14;fontStyle=1;shadow=0;glass=0;&quot; vertex=&quot;1&quot; parent=&quot;1&quot;&gt;&#10;          &lt;mxgeometry x=&quot;150&quot; y=&quot;130&quot; width=&quot;240&quot; height=&quot;50&quot; as=&quot;geometry&quot;&gt;&#10;        &lt;/mxgeometry&gt;&lt;/mxcell&gt;&#10;        &#10;        &lt;mxcell id=&quot;sensitivity&quot; value=&quot;SENSITIVITY&quot; style=&quot;rounded=1;whiteSpace=wrap;html=1;fillColor=#fff2cc;strokeColor=#d6b656;fontSize=14;fontStyle=1;&quot; vertex=&quot;1&quot; parent=&quot;1&quot;&gt;&#10;          &lt;mxgeometry x=&quot;430&quot; y=&quot;130&quot; width=&quot;240&quot; height=&quot;50&quot; as=&quot;geometry&quot;&gt;&#10;        &lt;/mxgeometry&gt;&lt;/mxcell&gt;&#10;        &#10;        &lt;mxcell id=&quot;adaptive&quot; value=&quot;ADAPTIVE CAPACITY&quot; style=&quot;rounded=1;whiteSpace=wrap;html=1;fillColor=#d5e8d4;strokeColor=#82b366;fontSize=14;fontStyle=1;&quot; vertex=&quot;1&quot; parent=&quot;1&quot;&gt;&#10;          &lt;mxgeometry x=&quot;710&quot; y=&quot;130&quot; width=&quot;240&quot; height=&quot;50&quot; as=&quot;geometry&quot;&gt;&#10;        &lt;/mxgeometry&gt;&lt;/mxcell&gt;&#10;        &#10;        &lt;!-- Factors for each component --&gt;&#10;        &lt;mxcell id=&quot;exposure_factors&quot; value=&quot;• Urban Heat Islands&#10;• Land Surface Temperature&#10;• Vegetation Index&#10;• Impervious Surface&#10;• Building Density&quot; style=&quot;text;fillColor=none;align=left;verticalAlign=top;fontSize=13;fontColor=#333333;spacingLeft=10;spacingTop=5;&quot; vertex=&quot;1&quot; parent=&quot;1&quot;&gt;&#10;          &lt;mxgeometry x=&quot;150&quot; y=&quot;190&quot; width=&quot;240&quot; height=&quot;100&quot; as=&quot;geometry&quot;&gt;&#10;        &lt;/mxgeometry&gt;&lt;/mxcell&gt;&#10;        &#10;        &lt;mxcell id=&quot;sensitivity_factors&quot; value=&quot;• Age Demographics&#10;• Pre-existing Health Conditions&#10;• Comorbidities&#10;• Physiological Factors&#10;• Health Inequalities&quot; style=&quot;text;fillColor=none;align=left;verticalAlign=top;fontSize=13;fontColor=#333333;spacingLeft=10;spacingTop=5;&quot; vertex=&quot;1&quot; parent=&quot;1&quot;&gt;&#10;          &lt;mxgeometry x=&quot;430&quot; y=&quot;190&quot; width=&quot;240&quot; height=&quot;100&quot; as=&quot;geometry&quot;&gt;&#10;        &lt;/mxgeometry&gt;&lt;/mxcell&gt;&#10;        &#10;        &lt;mxcell id=&quot;adaptive_factors&quot; value=&quot;• Air Conditioning Access&#10;• Housing Quality&#10;• Healthcare Access&#10;• Green Space Proximity&#10;• Income Levels&quot; style=&quot;text;fillColor=none;align=left;verticalAlign=top;fontSize=13;fontColor=#333333;spacingLeft=10;spacingTop=5;&quot; vertex=&quot;1&quot; parent=&quot;1&quot;&gt;&#10;          &lt;mxgeometry x=&quot;710&quot; y=&quot;190&quot; width=&quot;240&quot; height=&quot;100&quot; as=&quot;geometry&quot;&gt;&#10;        &lt;/mxgeometry&gt;&lt;/mxcell&gt;&#10;        &#10;        &lt;!-- Analytical Lenses Header --&gt;&#10;        &lt;mxcell id=&quot;lenses_header&quot; value=&quot;ANALYTICAL LENSES&quot; style=&quot;text;fontSize=16;fontStyle=1;align=center;spacingTop=0;spacingBottom=0;html=1;fontColor=#333333&quot; vertex=&quot;1&quot; parent=&quot;1&quot;&gt;&#10;          &lt;mxgeometry x=&quot;150&quot; y=&quot;310&quot; width=&quot;800&quot; height=&quot;30&quot; as=&quot;geometry&quot;&gt;&#10;        &lt;/mxgeometry&gt;&lt;/mxcell&gt;&#10;        &#10;        &lt;!-- Three lenses --&gt;&#10;        &lt;mxcell id=&quot;lens1&quot; value=&quot;INFRASTRUCTURAL JUSTICE&quot; style=&quot;ellipse;whiteSpace=wrap;html=1;fillColor=#e1d5e7;strokeColor=#9673a6;fontSize=14;fontStyle=1;shadow=0;&quot; vertex=&quot;1&quot; parent=&quot;1&quot;&gt;&#10;          &lt;mxgeometry x=&quot;150&quot; y=&quot;350&quot; width=&quot;240&quot; height=&quot;60&quot; as=&quot;geometry&quot;&gt;&#10;        &lt;/mxgeometry&gt;&lt;/mxcell&gt;&#10;        &#10;        &lt;mxcell id=&quot;lens1_desc&quot; value=&quot;• Unequal access to protective infrastructure&#10;• Spatial disparities in urban development&quot; style=&quot;text;fillColor=none;align=center;verticalAlign=top;fontSize=13;fontColor=#333333;spacingTop=5;&quot; vertex=&quot;1&quot; parent=&quot;1&quot;&gt;&#10;          &lt;mxgeometry x=&quot;150&quot; y=&quot;420&quot; width=&quot;240&quot; height=&quot;50&quot; as=&quot;geometry&quot;&gt;&#10;        &lt;/mxgeometry&gt;&lt;/mxcell&gt;&#10;        &#10;        &lt;mxcell id=&quot;lens2&quot; value=&quot;CLIMATE RESILIENCE&quot; style=&quot;ellipse;whiteSpace=wrap;html=1;fillColor=#dae8fc;strokeColor=#6c8ebf;fontSize=14;fontStyle=1;shadow=0;&quot; vertex=&quot;1&quot; parent=&quot;1&quot;&gt;&#10;          &lt;mxgeometry x=&quot;430&quot; y=&quot;350&quot; width=&quot;240&quot; height=&quot;60&quot; as=&quot;geometry&quot;&gt;&#10;        &lt;/mxgeometry&gt;&lt;/mxcell&gt;&#10;        &#10;        &lt;mxcell id=&quot;lens2_desc&quot; value=&quot;• Adaptive capacity building&#10;• Climate-ready urban planning&quot; style=&quot;text;fillColor=none;align=center;verticalAlign=top;fontSize=13;fontColor=#333333;spacingTop=5;&quot; vertex=&quot;1&quot; parent=&quot;1&quot;&gt;&#10;          &lt;mxgeometry x=&quot;430&quot; y=&quot;420&quot; width=&quot;240&quot; height=&quot;50&quot; as=&quot;geometry&quot;&gt;&#10;        &lt;/mxgeometry&gt;&lt;/mxcell&gt;&#10;        &#10;        &lt;mxcell id=&quot;lens3&quot; value=&quot;HEALTH EQUITY&quot; style=&quot;ellipse;whiteSpace=wrap;html=1;fillColor=#fff2cc;strokeColor=#d6b656;fontSize=14;fontStyle=1;shadow=0;&quot; vertex=&quot;1&quot; parent=&quot;1&quot;&gt;&#10;          &lt;mxgeometry x=&quot;710&quot; y=&quot;350&quot; width=&quot;240&quot; height=&quot;60&quot; as=&quot;geometry&quot;&gt;&#10;        &lt;/mxgeometry&gt;&lt;/mxcell&gt;&#10;        &#10;        &lt;mxcell id=&quot;lens3_desc&quot; value=&quot;• Differential health outcomes&#10;• Identifying vulnerable populations&quot; style=&quot;text;fillColor=none;align=center;verticalAlign=top;fontSize=13;fontColor=#333333;spacingTop=5;&quot; vertex=&quot;1&quot; parent=&quot;1&quot;&gt;&#10;          &lt;mxgeometry x=&quot;710&quot; y=&quot;420&quot; width=&quot;240&quot; height=&quot;50&quot; as=&quot;geometry&quot;&gt;&#10;        &lt;/mxgeometry&gt;&lt;/mxcell&gt;&#10;        &#10;        &lt;!-- Research Phases Header --&gt;&#10;        &lt;mxcell id=&quot;phases_header&quot; value=&quot;RESEARCH PHASES&quot; style=&quot;text;fontSize=16;fontStyle=1;align=center;spacingTop=0;spacingBottom=0;html=1;fontColor=#333333&quot; vertex=&quot;1&quot; parent=&quot;1&quot;&gt;&#10;          &lt;mxgeometry x=&quot;150&quot; y=&quot;490&quot; width=&quot;800&quot; height=&quot;30&quot; as=&quot;geometry&quot;&gt;&#10;        &lt;/mxgeometry&gt;&lt;/mxcell&gt;&#10;        &#10;        &lt;!-- Research Phases with Arrows --&gt;&#10;        &lt;mxcell id=&quot;phase1&quot; value=&quot;1. VULNERABILITY MAPPING&quot; style=&quot;rounded=1;whiteSpace=wrap;html=1;fillColor=#f8cecc;strokeColor=#b85450;fontSize=14;fontStyle=1;&quot; vertex=&quot;1&quot; parent=&quot;1&quot;&gt;&#10;          &lt;mxgeometry x=&quot;150&quot; y=&quot;530&quot; width=&quot;240&quot; height=&quot;50&quot; as=&quot;geometry&quot;&gt;&#10;        &lt;/mxgeometry&gt;&lt;/mxcell&gt;&#10;        &#10;        &lt;mxcell id=&quot;phase1_desc&quot; value=&quot;Spatial analysis of heat vulnerability patterns across Johannesburg&quot; style=&quot;text;fillColor=none;align=center;verticalAlign=top;fontSize=13;fontColor=#333333;spacingTop=5;&quot; vertex=&quot;1&quot; parent=&quot;1&quot;&gt;&#10;          &lt;mxgeometry x=&quot;150&quot; y=&quot;590&quot; width=&quot;240&quot; height=&quot;50&quot; as=&quot;geometry&quot;&gt;&#10;        &lt;/mxgeometry&gt;&lt;/mxcell&gt;&#10;        &#10;        &lt;mxcell id=&quot;arrow1&quot; value=&quot;&quot; style=&quot;endArrow=block;html=1;rounded=0;entryX=0;entryY=0.5;entryDx=0;entryDy=0;exitX=1;exitY=0.5;exitDx=0;exitDy=0;endFill=1;strokeWidth=2;strokeColor=#666666;&quot; edge=&quot;1&quot; parent=&quot;1&quot; source=&quot;phase1&quot; target=&quot;phase2&quot;&gt;&#10;          &lt;mxgeometry width=&quot;50&quot; height=&quot;50&quot; relative=&quot;1&quot; as=&quot;geometry&quot;&gt;&#10;            &lt;mxpoint x=&quot;390&quot; y=&quot;555&quot; as=&quot;sourcePoint&quot;&gt;&#10;            &lt;mxpoint x=&quot;430&quot; y=&quot;555&quot; as=&quot;targetPoint&quot;&gt;&#10;          &lt;/mxpoint&gt;&lt;/mxpoint&gt;&lt;/mxgeometry&gt;&#10;        &lt;/mxcell&gt;&#10;        &#10;        &lt;mxcell id=&quot;phase2&quot; value=&quot;2. CAUSAL ANALYSIS&quot; style=&quot;rounded=1;whiteSpace=wrap;html=1;fillColor=#fff2cc;strokeColor=#d6b656;fontSize=14;fontStyle=1;&quot; vertex=&quot;1&quot; parent=&quot;1&quot;&gt;&#10;          &lt;mxgeometry x=&quot;430&quot; y=&quot;530&quot; width=&quot;240&quot; height=&quot;50&quot; as=&quot;geometry&quot;&gt;&#10;        &lt;/mxgeometry&gt;&lt;/mxcell&gt;&#10;        &#10;        &lt;mxcell id=&quot;phase2_desc&quot; value=&quot;Identifying mechanisms driving heat-health outcomes through causal inference&quot; style=&quot;text;fillColor=none;align=center;verticalAlign=top;fontSize=13;fontColor=#333333;spacingTop=5;&quot; vertex=&quot;1&quot; parent=&quot;1&quot;&gt;&#10;          &lt;mxgeometry x=&quot;430&quot; y=&quot;590&quot; width=&quot;240&quot; height=&quot;50&quot; as=&quot;geometry&quot;&gt;&#10;        &lt;/mxgeometry&gt;&lt;/mxcell&gt;&#10;        &#10;        &lt;mxcell id=&quot;arrow2&quot; value=&quot;&quot; style=&quot;endArrow=block;html=1;rounded=0;entryX=0;entryY=0.5;entryDx=0;entryDy=0;exitX=1;exitY=0.5;exitDx=0;exitDy=0;endFill=1;strokeWidth=2;strokeColor=#666666;&quot; edge=&quot;1&quot; parent=&quot;1&quot; source=&quot;phase2&quot; target=&quot;phase3&quot;&gt;&#10;          &lt;mxgeometry width=&quot;50&quot; height=&quot;50&quot; relative=&quot;1&quot; as=&quot;geometry&quot;&gt;&#10;            &lt;mxpoint x=&quot;670&quot; y=&quot;555&quot; as=&quot;sourcePoint&quot;&gt;&#10;            &lt;mxpoint x=&quot;710&quot; y=&quot;555&quot; as=&quot;targetPoint&quot;&gt;&#10;          &lt;/mxpoint&gt;&lt;/mxpoint&gt;&lt;/mxgeometry&gt;&#10;        &lt;/mxcell&gt;&#10;        &#10;        &lt;mxcell id=&quot;phase3&quot; value=&quot;3. PREDICTIVE MODELING&quot; style=&quot;rounded=1;whiteSpace=wrap;html=1;fillColor=#d5e8d4;strokeColor=#82b366;fontSize=14;fontStyle=1;&quot; vertex=&quot;1&quot; parent=&quot;1&quot;&gt;&#10;          &lt;mxgeometry x=&quot;710&quot; y=&quot;530&quot; width=&quot;240&quot; height=&quot;50&quot; as=&quot;geometry&quot;&gt;&#10;        &lt;/mxgeometry&gt;&lt;/mxcell&gt;&#10;        &#10;        &lt;mxcell id=&quot;phase3_desc&quot; value=&quot;Forecasting heat-health risks and identifying critical thresholds&quot; style=&quot;text;fillColor=none;align=center;verticalAlign=top;fontSize=13;fontColor=#333333;spacingTop=5;&quot; vertex=&quot;1&quot; parent=&quot;1&quot;&gt;&#10;          &lt;mxgeometry x=&quot;710&quot; y=&quot;590&quot; width=&quot;240&quot; height=&quot;50&quot; as=&quot;geometry&quot;&gt;&#10;        &lt;/mxgeometry&gt;&lt;/mxcell&gt;&#10;        &#10;        &lt;!-- Methodological Approaches --&gt;&#10;        &lt;mxcell id=&quot;methods_header&quot; value=&quot;KEY METHODOLOGICAL APPROACHES&quot; style=&quot;text;fontSize=16;fontStyle=1;align=center;spacingTop=0;spacingBottom=0;html=1;fontColor=#333333&quot; vertex=&quot;1&quot; parent=&quot;1&quot;&gt;&#10;          &lt;mxgeometry x=&quot;150&quot; y=&quot;660&quot; width=&quot;800&quot; height=&quot;30&quot; as=&quot;geometry&quot;&gt;&#10;        &lt;/mxgeometry&gt;&lt;/mxcell&gt;&#10;        &#10;        &lt;mxcell id=&quot;methods&quot; value=&quot;• Geographically Weighted Principal Component Analysis (GW-PCA)&#10;• Causal Machine Learning (PC Algorithm, Double Machine Learning)&#10;• Spatio-temporal Distributed Lag Non-linear Models (DLNM)&#10;• Ensemble Prediction with Uncertainty Quantification&quot; style=&quot;text;fillColor=none;align=left;verticalAlign=top;fontSize=13;fontColor=#333333;spacingLeft=0;spacingTop=5;whiteSpace=wrap;&quot; vertex=&quot;1&quot; parent=&quot;1&quot;&gt;&#10;          &lt;mxgeometry x=&quot;150&quot; y=&quot;700&quot; width=&quot;800&quot; height=&quot;80&quot; as=&quot;geometry&quot;&gt;&#10;        &lt;/mxgeometry&gt;&lt;/mxcell&gt;&#10;        &#10;        &lt;!-- Note on Scope --&gt;&#10;        &lt;mxcell id=&quot;scope_note&quot; value=&quot;Note: This research focuses on understanding vulnerability patterns, causal mechanisms, and predictive capabilities.&#10;The development and implementation of interventions falls outside the scope of this PhD.&quot; style=&quot;text;fillColor=#f5f5f5;align=center;verticalAlign=middle;fontSize=13;fontColor=#333333;strokeColor=#666666;rounded=1;fontStyle=2;&quot; vertex=&quot;1&quot; parent=&quot;1&quot;&gt;&#10;          &lt;mxgeometry x=&quot;150&quot; y=&quot;790&quot; width=&quot;800&quot; height=&quot;40&quot; as=&quot;geometry&quot;&gt;&#10;        &lt;/mxgeometry&gt;&lt;/mxcell&gt;&#10;      &lt;/mxcell&gt;&lt;/mxcell&gt;&lt;/root&gt;&#10;    &lt;/mxgraphmodel&gt;&#10;  &lt;/diagram&gt;&#10;]]&amp;gt;" style="text;whiteSpace=wrap;html=1;fontFamily=Tahoma;" vertex="1" parent="1">
                    <mxGeometry width="50" height="1920" as="geometry"/>
                </mxCell>
                <mxCell id="qzPox6_nOAjFGzBAiWsM-3" value="Urban Heat Vulnerability Analysis: Conceptual Framework" style="text;fontSize=20;fontStyle=1;align=center;verticalAlign=middle;fontColor=#006666;spacingTop=0;spacingBottom=0;html=1;fontFamily=Tahoma;" vertex="1" parent="1">
                    <mxGeometry x="150" y="30" width="800" height="40" as="geometry"/>
                </mxCell>
                <mxCell id="qzPox6_nOAjFGzBAiWsM-4" value="VULNERABILITY COMPONENTS" style="text;fontSize=16;fontStyle=1;align=center;spacingTop=0;spacingBottom=0;html=1;fontColor=#333333;fontFamily=Tahoma;" vertex="1" parent="1">
                    <mxGeometry x="150" y="90" width="800" height="30" as="geometry"/>
                </mxCell>
                <mxCell id="qzPox6_nOAjFGzBAiWsM-5" value="&lt;font color=&quot;#b3b3b3&quot;&gt;EXPOSURE&lt;/font&gt;" style="rounded=1;whiteSpace=wrap;html=1;fillColor=#f8cecc;strokeColor=#b85450;fontSize=14;fontStyle=1;shadow=0;glass=0;fontFamily=Tahoma;" vertex="1" parent="1">
                    <mxGeometry x="150" y="130" width="240" height="50" as="geometry"/>
                </mxCell>
                <mxCell id="qzPox6_nOAjFGzBAiWsM-6" value="&lt;font color=&quot;#b3b3b3&quot;&gt;SENSITIVITY&lt;/font&gt;" style="rounded=1;whiteSpace=wrap;html=1;fillColor=#FFFFCC;strokeColor=#d6b656;fontSize=14;fontStyle=1;fontFamily=Tahoma;" vertex="1" parent="1">
                    <mxGeometry x="430" y="130" width="240" height="50" as="geometry"/>
                </mxCell>
                <mxCell id="qzPox6_nOAjFGzBAiWsM-7" value="&lt;font color=&quot;#b3b3b3&quot;&gt;ADAPTIVE CAPACITY&lt;/font&gt;" style="rounded=1;whiteSpace=wrap;html=1;fillColor=#d5e8d4;strokeColor=#82b366;fontSize=14;fontStyle=1;fontFamily=Tahoma;" vertex="1" parent="1">
                    <mxGeometry x="710" y="130" width="240" height="50" as="geometry"/>
                </mxCell>
                <mxCell id="qzPox6_nOAjFGzBAiWsM-8" value="• Urban Heat Islands&#10;• Land Surface Temperature&#10;• Vegetation Index&#10;• Impervious Surface&#10;• Building Density" style="text;fillColor=none;align=left;verticalAlign=top;fontSize=13;fontColor=#333333;spacingLeft=10;spacingTop=5;fontFamily=Tahoma;" vertex="1" parent="1">
                    <mxGeometry x="150" y="190" width="240" height="100" as="geometry"/>
                </mxCell>
                <mxCell id="qzPox6_nOAjFGzBAiWsM-9" value="• Age Demographics&#10;• Pre-existing Health Conditions&#10;• Comorbidities&#10;• Physiological Factors&#10;• Health Inequalities" style="text;fillColor=none;align=left;verticalAlign=top;fontSize=13;fontColor=#333333;spacingLeft=10;spacingTop=5;fontFamily=Tahoma;" vertex="1" parent="1">
                    <mxGeometry x="430" y="190" width="240" height="100" as="geometry"/>
                </mxCell>
                <mxCell id="qzPox6_nOAjFGzBAiWsM-10" value="• Air Conditioning Access&#10;• Housing Quality&#10;• Healthcare Access&#10;• Green Space Proximity&#10;• Income Levels" style="text;fillColor=none;align=left;verticalAlign=top;fontSize=13;fontColor=#333333;spacingLeft=10;spacingTop=5;fontFamily=Tahoma;" vertex="1" parent="1">
                    <mxGeometry x="710" y="190" width="240" height="100" as="geometry"/>
                </mxCell>
                <mxCell id="qzPox6_nOAjFGzBAiWsM-11" value="ANALYTICAL LENSES" style="text;fontSize=16;fontStyle=1;align=center;spacingTop=0;spacingBottom=0;html=1;fontColor=#333333;fontFamily=Tahoma;" vertex="1" parent="1">
                    <mxGeometry x="150" y="310" width="800" height="30" as="geometry"/>
                </mxCell>
                <mxCell id="qzPox6_nOAjFGzBAiWsM-12" value="&lt;font color=&quot;#b3b3b3&quot;&gt;INFRASTRUCTURAL JUSTICE&lt;/font&gt;" style="ellipse;whiteSpace=wrap;html=1;fillColor=#e1d5e7;strokeColor=#9673a6;fontSize=14;fontStyle=1;shadow=0;fontFamily=Tahoma;" vertex="1" parent="1">
                    <mxGeometry x="150" y="350" width="240" height="60" as="geometry"/>
                </mxCell>
                <mxCell id="qzPox6_nOAjFGzBAiWsM-13" value="• Unequal access to protective infrastructure&#10;• Spatial disparities in urban development" style="text;fillColor=none;align=center;verticalAlign=top;fontSize=13;fontColor=#333333;spacingTop=5;fontFamily=Tahoma;" vertex="1" parent="1">
                    <mxGeometry x="150" y="420" width="240" height="50" as="geometry"/>
                </mxCell>
                <mxCell id="qzPox6_nOAjFGzBAiWsM-14" value="&lt;font color=&quot;#b3b3b3&quot;&gt;CLIMATE RESILIENCE&lt;/font&gt;" style="ellipse;whiteSpace=wrap;html=1;fillColor=#dae8fc;strokeColor=#6c8ebf;fontSize=14;fontStyle=1;shadow=0;fontFamily=Tahoma;" vertex="1" parent="1">
                    <mxGeometry x="430" y="350" width="240" height="60" as="geometry"/>
                </mxCell>
                <mxCell id="qzPox6_nOAjFGzBAiWsM-15" value="• Adaptive capacity building&#10;• Climate-ready urban planning" style="text;fillColor=none;align=center;verticalAlign=top;fontSize=13;fontColor=#333333;spacingTop=5;fontFamily=Tahoma;" vertex="1" parent="1">
                    <mxGeometry x="430" y="420" width="240" height="50" as="geometry"/>
                </mxCell>
                <mxCell id="qzPox6_nOAjFGzBAiWsM-16" value="&lt;font color=&quot;#999999&quot;&gt;HEALTH EQUITY&lt;/font&gt;" style="ellipse;whiteSpace=wrap;html=1;fillColor=#FFFFCC;strokeColor=#d6b656;fontSize=14;fontStyle=1;shadow=0;fontFamily=Tahoma;" vertex="1" parent="1">
                    <mxGeometry x="710" y="350" width="240" height="60" as="geometry"/>
                </mxCell>
                <mxCell id="qzPox6_nOAjFGzBAiWsM-17" value="• Differential health outcomes&#10;• Identifying vulnerable populations" style="text;fillColor=none;align=center;verticalAlign=top;fontSize=13;fontColor=#333333;spacingTop=5;fontFamily=Tahoma;" vertex="1" parent="1">
                    <mxGeometry x="710" y="420" width="240" height="50" as="geometry"/>
                </mxCell>
                <mxCell id="qzPox6_nOAjFGzBAiWsM-18" value="RESEARCH PHASES" style="text;fontSize=16;fontStyle=1;align=center;spacingTop=0;spacingBottom=0;html=1;fontColor=#333333;fontFamily=Tahoma;" vertex="1" parent="1">
                    <mxGeometry x="150" y="490" width="800" height="30" as="geometry"/>
                </mxCell>
                <mxCell id="qzPox6_nOAjFGzBAiWsM-19" value="&lt;font color=&quot;#b3b3b3&quot;&gt;1. VULNERABILITY MAPPING&lt;/font&gt;" style="rounded=1;whiteSpace=wrap;html=1;fillColor=#f8cecc;strokeColor=#b85450;fontSize=14;fontStyle=1;fontFamily=Tahoma;" vertex="1" parent="1">
                    <mxGeometry x="150" y="530" width="240" height="50" as="geometry"/>
                </mxCell>
                <mxCell id="qzPox6_nOAjFGzBAiWsM-20" value="Spatial analysis of heat vulnerability &#10;patterns across Johannesburg" style="text;fillColor=none;align=center;verticalAlign=top;fontSize=13;fontColor=#333333;spacingTop=5;fontFamily=Tahoma;" vertex="1" parent="1">
                    <mxGeometry x="154" y="592" width="240" height="50" as="geometry"/>
                </mxCell>
                <mxCell id="qzPox6_nOAjFGzBAiWsM-21" value="" style="endArrow=block;html=1;rounded=0;entryX=0;entryY=0.5;entryDx=0;entryDy=0;exitX=1;exitY=0.5;exitDx=0;exitDy=0;endFill=1;strokeWidth=2;strokeColor=#666666;fontFamily=Tahoma;" edge="1" parent="1" source="qzPox6_nOAjFGzBAiWsM-19" target="qzPox6_nOAjFGzBAiWsM-22">
                    <mxGeometry width="50" height="50" relative="1" as="geometry">
                        <mxPoint x="390" y="555" as="sourcePoint"/>
                        <mxPoint x="430" y="555" as="targetPoint"/>
                    </mxGeometry>
                </mxCell>
                <mxCell id="qzPox6_nOAjFGzBAiWsM-22" value="&lt;font color=&quot;#b3b3b3&quot;&gt;2. CAUSAL ANALYSIS&lt;/font&gt;" style="rounded=1;whiteSpace=wrap;html=1;fillColor=#FFFFCC;strokeColor=#d6b656;fontSize=14;fontStyle=1;fontFamily=Tahoma;" vertex="1" parent="1">
                    <mxGeometry x="430" y="530" width="240" height="50" as="geometry"/>
                </mxCell>
                <mxCell id="qzPox6_nOAjFGzBAiWsM-23" value="Identifying mechanisms driving heat-health &#10;outcomes through causal inference" style="text;fillColor=none;align=center;verticalAlign=top;fontSize=13;fontColor=#333333;spacingTop=5;fontFamily=Tahoma;" vertex="1" parent="1">
                    <mxGeometry x="430" y="590" width="240" height="50" as="geometry"/>
                </mxCell>
                <mxCell id="qzPox6_nOAjFGzBAiWsM-24" value="" style="endArrow=block;html=1;rounded=0;entryX=0;entryY=0.5;entryDx=0;entryDy=0;exitX=1;exitY=0.5;exitDx=0;exitDy=0;endFill=1;strokeWidth=2;strokeColor=#666666;fontFamily=Tahoma;" edge="1" parent="1" source="qzPox6_nOAjFGzBAiWsM-22" target="qzPox6_nOAjFGzBAiWsM-25">
                    <mxGeometry width="50" height="50" relative="1" as="geometry">
                        <mxPoint x="670" y="555" as="sourcePoint"/>
                        <mxPoint x="710" y="555" as="targetPoint"/>
                    </mxGeometry>
                </mxCell>
                <mxCell id="qzPox6_nOAjFGzBAiWsM-25" value="&lt;font color=&quot;#b3b3b3&quot;&gt;3. PREDICTIVE MODELING&lt;/font&gt;" style="rounded=1;whiteSpace=wrap;html=1;fillColor=#d5e8d4;strokeColor=#82b366;fontSize=14;fontStyle=1;fontFamily=Tahoma;" vertex="1" parent="1">
                    <mxGeometry x="710" y="530" width="240" height="50" as="geometry"/>
                </mxCell>
                <mxCell id="qzPox6_nOAjFGzBAiWsM-26" value="Forecasting heat-health risks and &#10;identifying critical thresholds" style="text;fillColor=none;align=center;verticalAlign=top;fontSize=13;fontColor=#333333;spacingTop=5;fontFamily=Tahoma;" vertex="1" parent="1">
                    <mxGeometry x="710" y="590" width="240" height="50" as="geometry"/>
                </mxCell>
                <mxCell id="qzPox6_nOAjFGzBAiWsM-27" value="KEY METHODOLOGICAL APPROACHES" style="text;fontSize=16;fontStyle=1;align=center;spacingTop=0;spacingBottom=0;html=1;fontColor=#333333;fontFamily=Tahoma;" vertex="1" parent="1">
                    <mxGeometry x="150" y="646" width="800" height="30" as="geometry"/>
                </mxCell>
                <mxCell id="qzPox6_nOAjFGzBAiWsM-28" value="• Geographically Weighted Principal Component Analysis (GW-PCA)&#10;• Causal Machine Learning (PC Algorithm, Double Machine Learning)&#10;• Spatio-temporal Distributed Lag Non-linear Models (DLNM)&#10;• Ensemble Prediction with Uncertainty Quantification" style="text;fillColor=none;align=left;verticalAlign=top;fontSize=13;fontColor=#333333;spacingLeft=0;spacingTop=5;whiteSpace=wrap;fontFamily=Tahoma;" vertex="1" parent="1">
                    <mxGeometry x="148" y="684" width="800" height="80" as="geometry"/>
                </mxCell>
                <mxCell id="qzPox6_nOAjFGzBAiWsM-29" value="Note: This research focuses on understanding vulnerability patterns, causal mechanisms, and predictive capabilities.&#10;The development and implementation of interventions falls outside the scope of this PhD." style="text;fillColor=#f5f5f5;align=center;verticalAlign=middle;fontSize=13;fontColor=#333333;strokeColor=#666666;rounded=1;fontStyle=2;fontFamily=Tahoma;" vertex="1" parent="1">
                    <mxGeometry x="150" y="769" width="800" height="40" as="geometry"/>
                </mxCell>
            </root>
        </mxGraphModel>
    </diagram>
    <diagram name="Page-1" id="_NKgy31l94cUTHU8xU68">
        <mxGraphModel dx="1220" dy="814" grid="1" gridSize="10" guides="1" tooltips="1" connect="1" arrows="1" fold="1" page="1" pageScale="1" pageWidth="1169" pageHeight="827" math="0" shadow="0">
            <root>
                <mxCell id="0"/>
                <mxCell id="1" parent="0"/>
                <mxCell id="2" value="PhD Project Timeline - Urban Heat and Health in Johannesburg" style="text;html=1;strokeColor=none;fillColor=none;align=center;verticalAlign=middle;whiteSpace=wrap;rounded=0;fontSize=16;fontStyle=1" parent="1" vertex="1">
                    <mxGeometry x="260" y="20" width="650" height="30" as="geometry"/>
                </mxCell>
                <mxCell id="3" value="Year 1" style="text;html=1;strokeColor=none;fillColor=#0057A4;align=center;verticalAlign=middle;whiteSpace=wrap;rounded=0;fontColor=#FFFFFF;fontStyle=1" parent="1" vertex="1">
                    <mxGeometry x="260" y="60" width="240" height="30" as="geometry"/>
                </mxCell>
                <mxCell id="4" value="Year 2" style="text;html=1;strokeColor=none;fillColor=#0057A4;align=center;verticalAlign=middle;whiteSpace=wrap;rounded=0;fontColor=#FFFFFF;fontStyle=1" parent="1" vertex="1">
                    <mxGeometry x="500" y="60" width="240" height="30" as="geometry"/>
                </mxCell>
                <mxCell id="5" value="Year 3" style="text;html=1;strokeColor=none;fillColor=#0057A4;align=center;verticalAlign=middle;whiteSpace=wrap;rounded=0;fontColor=#FFFFFF;fontStyle=1" parent="1" vertex="1">
                    <mxGeometry x="740" y="60" width="240" height="30" as="geometry"/>
                </mxCell>
                <mxCell id="6" value="Q1" style="text;html=1;strokeColor=none;fillColor=#D6E8FF;align=center;verticalAlign=middle;whiteSpace=wrap;rounded=0;" parent="1" vertex="1">
                    <mxGeometry x="260" y="90" width="60" height="20" as="geometry"/>
                </mxCell>
                <mxCell id="7" value="Q2" style="text;html=1;strokeColor=none;fillColor=#D6E8FF;align=center;verticalAlign=middle;whiteSpace=wrap;rounded=0;" parent="1" vertex="1">
                    <mxGeometry x="320" y="90" width="60" height="20" as="geometry"/>
                </mxCell>
                <mxCell id="8" value="Q3" style="text;html=1;strokeColor=none;fillColor=#D6E8FF;align=center;verticalAlign=middle;whiteSpace=wrap;rounded=0;" parent="1" vertex="1">
                    <mxGeometry x="380" y="90" width="60" height="20" as="geometry"/>
                </mxCell>
                <mxCell id="9" value="Q4" style="text;html=1;strokeColor=none;fillColor=#D6E8FF;align=center;verticalAlign=middle;whiteSpace=wrap;rounded=0;" parent="1" vertex="1">
                    <mxGeometry x="440" y="90" width="60" height="20" as="geometry"/>
                </mxCell>
                <mxCell id="10" value="Q1" style="text;html=1;strokeColor=none;fillColor=#D6E8FF;align=center;verticalAlign=middle;whiteSpace=wrap;rounded=0;" parent="1" vertex="1">
                    <mxGeometry x="500" y="90" width="60" height="20" as="geometry"/>
                </mxCell>
                <mxCell id="11" value="Q2" style="text;html=1;strokeColor=none;fillColor=#D6E8FF;align=center;verticalAlign=middle;whiteSpace=wrap;rounded=0;" parent="1" vertex="1">
                    <mxGeometry x="560" y="90" width="60" height="20" as="geometry"/>
                </mxCell>
                <mxCell id="12" value="Q3" style="text;html=1;strokeColor=none;fillColor=#D6E8FF;align=center;verticalAlign=middle;whiteSpace=wrap;rounded=0;" parent="1" vertex="1">
                    <mxGeometry x="620" y="90" width="60" height="20" as="geometry"/>
                </mxCell>
                <mxCell id="13" value="Q4" style="text;html=1;strokeColor=none;fillColor=#D6E8FF;align=center;verticalAlign=middle;whiteSpace=wrap;rounded=0;" parent="1" vertex="1">
                    <mxGeometry x="680" y="90" width="60" height="20" as="geometry"/>
                </mxCell>
                <mxCell id="14" value="Q1" style="text;html=1;strokeColor=none;fillColor=#D6E8FF;align=center;verticalAlign=middle;whiteSpace=wrap;rounded=0;" parent="1" vertex="1">
                    <mxGeometry x="740" y="90" width="60" height="20" as="geometry"/>
                </mxCell>
                <mxCell id="15" value="Q2" style="text;html=1;strokeColor=none;fillColor=#D6E8FF;align=center;verticalAlign=middle;whiteSpace=wrap;rounded=0;" parent="1" vertex="1">
                    <mxGeometry x="800" y="90" width="60" height="20" as="geometry"/>
                </mxCell>
                <mxCell id="16" value="Q3" style="text;html=1;strokeColor=none;fillColor=#D6E8FF;align=center;verticalAlign=middle;whiteSpace=wrap;rounded=0;" parent="1" vertex="1">
                    <mxGeometry x="860" y="90" width="60" height="20" as="geometry"/>
                </mxCell>
                <mxCell id="17" value="Q4" style="text;html=1;strokeColor=none;fillColor=#D6E8FF;align=center;verticalAlign=middle;whiteSpace=wrap;rounded=0;" parent="1" vertex="1">
                    <mxGeometry x="920" y="90" width="60" height="20" as="geometry"/>
                </mxCell>
                <mxCell id="18" value="Phase 1: Protocol Development" style="text;html=1;strokeColor=none;fillColor=none;align=left;verticalAlign=middle;whiteSpace=wrap;rounded=0;fontStyle=1" parent="1" vertex="1">
                    <mxGeometry x="80" y="120" width="180" height="30" as="geometry"/>
                </mxCell>
                <mxCell id="19" value="Phase 2: Data Acquisition &amp; Processing" style="text;html=1;strokeColor=none;fillColor=none;align=left;verticalAlign=middle;whiteSpace=wrap;rounded=0;fontStyle=1" parent="1" vertex="1">
                    <mxGeometry x="80" y="160" width="180" height="30" as="geometry"/>
                </mxCell>
                <mxCell id="20" value="Phase 3: Heat Vulnerability Mapping" style="text;html=1;strokeColor=none;fillColor=none;align=left;verticalAlign=middle;whiteSpace=wrap;rounded=0;fontStyle=1" parent="1" vertex="1">
                    <mxGeometry x="80" y="200" width="180" height="30" as="geometry"/>
                </mxCell>
                <mxCell id="21" value="Phase 4: Explanatory Modeling" style="text;html=1;strokeColor=none;fillColor=none;align=left;verticalAlign=middle;whiteSpace=wrap;rounded=0;fontStyle=1" parent="1" vertex="1">
                    <mxGeometry x="80" y="240" width="180" height="30" as="geometry"/>
                </mxCell>
                <mxCell id="22" value="Phase 5: Predictive Modeling" style="text;html=1;strokeColor=none;fillColor=none;align=left;verticalAlign=middle;whiteSpace=wrap;rounded=0;fontStyle=1" parent="1" vertex="1">
                    <mxGeometry x="80" y="280" width="180" height="30" as="geometry"/>
                </mxCell>
                <mxCell id="23" value="Phase 6: Thesis Writing" style="text;html=1;strokeColor=none;fillColor=none;align=left;verticalAlign=middle;whiteSpace=wrap;rounded=0;fontStyle=1" parent="1" vertex="1">
                    <mxGeometry x="80" y="320" width="180" height="30" as="geometry"/>
                </mxCell>
                <mxCell id="24" value="" style="rounded=1;whiteSpace=wrap;html=1;fillColor=#FFD200;strokeColor=#d6b656;" parent="1" vertex="1">
                    <mxGeometry x="260" y="120" width="90" height="30" as="geometry"/>
                </mxCell>
                <mxCell id="25" value="" style="rounded=1;whiteSpace=wrap;html=1;fillColor=#FFD200;strokeColor=#d6b656;" parent="1" vertex="1">
                    <mxGeometry x="290" y="160" width="150" height="30" as="geometry"/>
                </mxCell>
                <mxCell id="26" value="" style="rounded=1;whiteSpace=wrap;html=1;fillColor=#FFD200;strokeColor=#d6b656;" parent="1" vertex="1">
                    <mxGeometry x="380" y="200" width="180" height="30" as="geometry"/>
                </mxCell>
                <mxCell id="27" value="" style="rounded=1;whiteSpace=wrap;html=1;fillColor=#FFD200;strokeColor=#d6b656;" parent="1" vertex="1">
                    <mxGeometry x="500" y="240" width="240" height="30" as="geometry"/>
                </mxCell>
                <mxCell id="28" value="" style="rounded=1;whiteSpace=wrap;html=1;fillColor=#FFD200;strokeColor=#d6b656;" parent="1" vertex="1">
                    <mxGeometry x="680" y="280" width="240" height="30" as="geometry"/>
                </mxCell>
                <mxCell id="29" value="" style="rounded=1;whiteSpace=wrap;html=1;fillColor=#FFD200;strokeColor=#d6b656;" parent="1" vertex="1">
                    <mxGeometry x="800" y="320" width="180" height="30" as="geometry"/>
                </mxCell>
                <mxCell id="30" value="M1" style="ellipse;whiteSpace=wrap;html=1;aspect=fixed;fillColor=#0057A4;strokeColor=#6c8ebf;fontColor=#FFFFFF;fontStyle=1" parent="1" vertex="1">
                    <mxGeometry x="340" y="115" width="40" height="40" as="geometry"/>
                </mxCell>
                <mxCell id="31" value="M2" style="ellipse;whiteSpace=wrap;html=1;aspect=fixed;fillColor=#0057A4;strokeColor=#6c8ebf;fontColor=#FFFFFF;fontStyle=1" parent="1" vertex="1">
                    <mxGeometry x="430" y="155" width="40" height="40" as="geometry"/>
                </mxCell>
                <mxCell id="32" value="M3" style="ellipse;whiteSpace=wrap;html=1;aspect=fixed;fillColor=#0057A4;strokeColor=#6c8ebf;fontColor=#FFFFFF;fontStyle=1" parent="1" vertex="1">
                    <mxGeometry x="550" y="195" width="40" height="40" as="geometry"/>
                </mxCell>
                <mxCell id="33" value="M4" style="ellipse;whiteSpace=wrap;html=1;aspect=fixed;fillColor=#0057A4;strokeColor=#6c8ebf;fontColor=#FFFFFF;fontStyle=1" parent="1" vertex="1">
                    <mxGeometry x="730" y="235" width="40" height="40" as="geometry"/>
                </mxCell>
                <mxCell id="34" value="M5" style="ellipse;whiteSpace=wrap;html=1;aspect=fixed;fillColor=#0057A4;strokeColor=#6c8ebf;fontColor=#FFFFFF;fontStyle=1" parent="1" vertex="1">
                    <mxGeometry x="910" y="275" width="40" height="40" as="geometry"/>
                </mxCell>
                <mxCell id="35" value="M6" style="ellipse;whiteSpace=wrap;html=1;aspect=fixed;fillColor=#0057A4;strokeColor=#6c8ebf;fontColor=#FFFFFF;fontStyle=1" parent="1" vertex="1">
                    <mxGeometry x="970" y="315" width="40" height="40" as="geometry"/>
                </mxCell>
                <mxCell id="36" value="Publications" style="text;html=1;strokeColor=none;fillColor=none;align=left;verticalAlign=middle;whiteSpace=wrap;rounded=0;fontStyle=1" parent="1" vertex="1">
                    <mxGeometry x="80" y="380" width="180" height="30" as="geometry"/>
                </mxCell>
                <mxCell id="37" value="Protocol Paper" style="rounded=1;whiteSpace=wrap;html=1;fillColor=#dae8fc;strokeColor=#6c8ebf;" parent="1" vertex="1">
                    <mxGeometry x="310" y="380" width="100" height="30" as="geometry"/>
                </mxCell>
                <mxCell id="38" value="Vulnerability Paper" style="rounded=1;whiteSpace=wrap;html=1;fillColor=#dae8fc;strokeColor=#6c8ebf;" parent="1" vertex="1">
                    <mxGeometry x="430" y="380" width="120" height="30" as="geometry"/>
                </mxCell>
                <mxCell id="39" value="Explanatory ML Paper" style="rounded=1;whiteSpace=wrap;html=1;fillColor=#dae8fc;strokeColor=#6c8ebf;" parent="1" vertex="1">
                    <mxGeometry x="620" y="380" width="140" height="30" as="geometry"/>
                </mxCell>
                <mxCell id="40" value="Predictive Modeling Paper" style="rounded=1;whiteSpace=wrap;html=1;fillColor=#dae8fc;strokeColor=#6c8ebf;" parent="1" vertex="1">
                    <mxGeometry x="860" y="380" width="160" height="30" as="geometry"/>
                </mxCell>
                <mxCell id="41" value="Faculty Assessment" style="text;html=1;strokeColor=none;fillColor=none;align=left;verticalAlign=middle;whiteSpace=wrap;rounded=0;fontStyle=1" parent="1" vertex="1">
                    <mxGeometry x="80" y="430" width="180" height="30" as="geometry"/>
                </mxCell>
                <mxCell id="42" value="Initial Review" style="shape=hexagon;perimeter=hexagonPerimeter2;whiteSpace=wrap;html=1;fixedSize=1;fillColor=#f8cecc;strokeColor=#b85450;" parent="1" vertex="1">
                    <mxGeometry x="320" y="430" width="100" height="30" as="geometry"/>
                </mxCell>
                <mxCell id="43" value="Annual Progress Review" style="shape=hexagon;perimeter=hexagonPerimeter2;whiteSpace=wrap;html=1;fixedSize=1;fillColor=#f8cecc;strokeColor=#b85450;" parent="1" vertex="1">
                    <mxGeometry x="500" y="430" width="160" height="30" as="geometry"/>
                </mxCell>
                <mxCell id="44" value="Annual Progress Review" style="shape=hexagon;perimeter=hexagonPerimeter2;whiteSpace=wrap;html=1;fixedSize=1;fillColor=#f8cecc;strokeColor=#b85450;" parent="1" vertex="1">
                    <mxGeometry x="740" y="430" width="160" height="30" as="geometry"/>
                </mxCell>
                <mxCell id="45" value="Thesis Submission" style="shape=hexagon;perimeter=hexagonPerimeter2;whiteSpace=wrap;html=1;fixedSize=1;fillColor=#f8cecc;strokeColor=#b85450;" parent="1" vertex="1">
                    <mxGeometry x="920" y="430" width="120" height="30" as="geometry"/>
                </mxCell>
                <mxCell id="46" value="Legend:" style="text;html=1;strokeColor=none;fillColor=none;align=left;verticalAlign=middle;whiteSpace=wrap;rounded=0;fontStyle=1" parent="1" vertex="1">
                    <mxGeometry x="80" y="480" width="60" height="30" as="geometry"/>
                </mxCell>
                <mxCell id="47" value="" style="rounded=1;whiteSpace=wrap;html=1;fillColor=#FFD200;strokeColor=#d6b656;" parent="1" vertex="1">
                    <mxGeometry x="150" y="480" width="60" height="20" as="geometry"/>
                </mxCell>
                <mxCell id="48" value="Research Phase" style="text;html=1;strokeColor=none;fillColor=none;align=left;verticalAlign=middle;whiteSpace=wrap;rounded=0;" parent="1" vertex="1">
                    <mxGeometry x="220" y="475" width="100" height="30" as="geometry"/>
                </mxCell>
                <mxCell id="49" value="M1" style="ellipse;whiteSpace=wrap;html=1;aspect=fixed;fillColor=#0057A4;strokeColor=#6c8ebf;fontColor=#FFFFFF;fontStyle=1" parent="1" vertex="1">
                    <mxGeometry x="340" y="475" width="30" height="30" as="geometry"/>
                </mxCell>
                <mxCell id="50" value="Milestone" style="text;html=1;strokeColor=none;fillColor=none;align=left;verticalAlign=middle;whiteSpace=wrap;rounded=0;" parent="1" vertex="1">
                    <mxGeometry x="380" y="475" width="60" height="30" as="geometry"/>
                </mxCell>
                <mxCell id="51" value="" style="rounded=1;whiteSpace=wrap;html=1;fillColor=#dae8fc;strokeColor=#6c8ebf;" parent="1" vertex="1">
                    <mxGeometry x="450" y="480" width="60" height="20" as="geometry"/>
                </mxCell>
                <mxCell id="52" value="Publication" style="text;html=1;strokeColor=none;fillColor=none;align=left;verticalAlign=middle;whiteSpace=wrap;rounded=0;" parent="1" vertex="1">
                    <mxGeometry x="520" y="475" width="70" height="30" as="geometry"/>
                </mxCell>
                <mxCell id="53" value="" style="shape=hexagon;perimeter=hexagonPerimeter2;whiteSpace=wrap;html=1;fixedSize=1;fillColor=#f8cecc;strokeColor=#b85450;" parent="1" vertex="1">
                    <mxGeometry x="600" y="480" width="60" height="20" as="geometry"/>
                </mxCell>
                <mxCell id="54" value="Faculty Assessment" style="text;html=1;strokeColor=none;fillColor=none;align=left;verticalAlign=middle;whiteSpace=wrap;rounded=0;" parent="1" vertex="1">
                    <mxGeometry x="670" y="475" width="120" height="30" as="geometry"/>
                </mxCell>
                <mxCell id="55" value="Milestone Descriptions:" style="text;html=1;strokeColor=none;fillColor=none;align=left;verticalAlign=middle;whiteSpace=wrap;rounded=0;fontStyle=1" parent="1" vertex="1">
                    <mxGeometry x="80" y="520" width="180" height="30" as="geometry"/>
                </mxCell>
                <mxCell id="56" value="M1: Protocol Finalization (Month 3)" style="text;html=1;strokeColor=none;fillColor=none;align=left;verticalAlign=middle;whiteSpace=wrap;rounded=0;" parent="1" vertex="1">
                    <mxGeometry x="80" y="550" width="240" height="20" as="geometry"/>
                </mxCell>
                <mxCell id="57" value="M2: Data Acquisition Completion (Month 9)" style="text;html=1;strokeColor=none;fillColor=none;align=left;verticalAlign=middle;whiteSpace=wrap;rounded=0;" parent="1" vertex="1">
                    <mxGeometry x="80" y="570" width="240" height="20" as="geometry"/>
                </mxCell>
                <mxCell id="58" value="M3: Vulnerability Mapping Completion (Month 18)" style="text;html=1;strokeColor=none;fillColor=none;align=left;verticalAlign=middle;whiteSpace=wrap;rounded=0;" parent="1" vertex="1">
                    <mxGeometry x="80" y="590" width="280" height="20" as="geometry"/>
                </mxCell>
                <mxCell id="59" value="M4: Model Validation (Month 30)" style="text;html=1;strokeColor=none;fillColor=none;align=left;verticalAlign=middle;whiteSpace=wrap;rounded=0;" parent="1" vertex="1">
                    <mxGeometry x="80" y="610" width="240" height="20" as="geometry"/>
                </mxCell>
                <mxCell id="60" value="M5: Predictive Model Deployment (Month 33)" style="text;html=1;strokeColor=none;fillColor=none;align=left;verticalAlign=middle;whiteSpace=wrap;rounded=0;" parent="1" vertex="1">
                    <mxGeometry x="80" y="630" width="280" height="20" as="geometry"/>
                </mxCell>
                <mxCell id="61" value="M6: Thesis Submission (Month 36)" style="text;html=1;strokeColor=none;fillColor=none;align=left;verticalAlign=middle;whiteSpace=wrap;rounded=0;" parent="1" vertex="1">
                    <mxGeometry x="80" y="650" width="240" height="20" as="geometry"/>
                </mxCell>
                <mxCell id="62" value="Publication Plan:" style="text;html=1;strokeColor=none;fillColor=none;align=left;verticalAlign=middle;whiteSpace=wrap;rounded=0;fontStyle=1" parent="1" vertex="1">
                    <mxGeometry x="400" y="520" width="180" height="30" as="geometry"/>
                </mxCell>
                <mxCell id="63" value="1. Protocol Paper (Month 4): 'Leveraging data science and machine learning for urban climate adaptation in two major African cities: a HE2AT Center study protocol'" style="text;html=1;strokeColor=none;fillColor=none;align=left;verticalAlign=middle;whiteSpace=wrap;rounded=0;" parent="1" vertex="1">
                    <mxGeometry x="400" y="550" width="580" height="30" as="geometry"/>
                </mxCell>
                <mxCell id="64" value="2. Vulnerability Paper (Month 9): 'Quantifying intra-urban socio-economic and environmental vulnerability to extreme heat events in Johannesburg, South Africa'" style="text;html=1;strokeColor=none;fillColor=none;align=left;verticalAlign=middle;whiteSpace=wrap;rounded=0;" parent="1" vertex="1">
                    <mxGeometry x="400" y="580" width="580" height="30" as="geometry"/>
                </mxCell>
                <mxCell id="65" value="3. Explanatory ML Paper (Month 19): 'Uncovering Heat-Health Pathways in Johannesburg: An Explanatory Machine Learning Approach Using Harmonized Urban Cohort Data'" style="text;html=1;strokeColor=none;fillColor=none;align=left;verticalAlign=middle;whiteSpace=wrap;rounded=0;" parent="1" vertex="1">
                    <mxGeometry x="400" y="610" width="580" height="30" as="geometry"/>
                </mxCell>
                <mxCell id="66" value="4. Predictive Modeling Paper (Month 33): 'Developing Stratified Heat-Health Early Warning Systems for Johannesburg: Integration of Vulnerability Mapping and Predictive Modeling'" style="text;html=1;strokeColor=none;fillColor=none;align=left;verticalAlign=middle;whiteSpace=wrap;rounded=0;" parent="1" vertex="1">
                    <mxGeometry x="400" y="640" width="580" height="30" as="geometry"/>
                </mxCell>
                <mxCell id="67" value="Primary risks include data accessibility challenges, computational constraints, and model performance issues. Detailed timelines, activities, and risk mitigation strategies are provided in Appendix C." style="text;html=1;strokeColor=none;fillColor=none;align=left;verticalAlign=middle;whiteSpace=wrap;rounded=0;fontStyle=2" parent="1" vertex="1">
                    <mxGeometry x="80" y="680" width="900" height="30" as="geometry"/>
                </mxCell>
            </root>
        </mxGraphModel>
    </diagram>
    <diagram name="Page-2" id="IW_sZt95OKIlTbX2lqSk">
        <mxGraphModel dx="1220" dy="814" grid="1" gridSize="10" guides="1" tooltips="1" connect="1" arrows="1" fold="1" page="1" pageScale="1" pageWidth="827" pageHeight="1169" math="0" shadow="0">
            <root>
                <mxCell id="0"/>
                <mxCell id="1" parent="0"/>
                <mxCell id="h4wn7cuC0amw1rr8jjnN-1" value="Conceptual Framework: Urban Heat Vulnerability in Johannesburg" style="text;fontSize=18;fontStyle=1;align=center;fontColor=#006666;" vertex="1" parent="1">
                    <mxGeometry x="230" y="20" width="700" height="30" as="geometry"/>
                </mxCell>
                <mxCell id="h4wn7cuC0amw1rr8jjnN-2" value="HISTORICAL CONTEXT: APARTHEID LEGACY" style="shape=process;whiteSpace=wrap;html=1;backgroundOutline=1;fillColor=#f5f5f5;strokeColor=#666666;fontColor=#333333;fontSize=12;fontStyle=1;" vertex="1" parent="1">
                    <mxGeometry x="230" y="60" width="700" height="30" as="geometry"/>
                </mxCell>
                <mxCell id="h4wn7cuC0amw1rr8jjnN-3" value="EXPOSURE" style="rounded=1;whiteSpace=wrap;html=1;fillColor=#f8cecc;strokeColor=#b85450;fontSize=14;fontStyle=1;" vertex="1" parent="1">
                    <mxGeometry x="190" y="130" width="220" height="60" as="geometry"/>
                </mxCell>
                <mxCell id="h4wn7cuC0amw1rr8jjnN-4" value="SENSITIVITY" style="rounded=1;whiteSpace=wrap;html=1;fillColor=#fff2cc;strokeColor=#d6b656;fontSize=14;fontStyle=1;" vertex="1" parent="1">
                    <mxGeometry x="470" y="130" width="220" height="60" as="geometry"/>
                </mxCell>
                <mxCell id="h4wn7cuC0amw1rr8jjnN-5" value="ADAPTIVE CAPACITY" style="rounded=1;whiteSpace=wrap;html=1;fillColor=#d5e8d4;strokeColor=#82b366;fontSize=14;fontStyle=1;" vertex="1" parent="1">
                    <mxGeometry x="750" y="130" width="220" height="60" as="geometry"/>
                </mxCell>
                <mxCell id="h4wn7cuC0amw1rr8jjnN-6" value="• Urban Heat Islands&#10;• Surface Temperature&#10;• Land Cover/Land Use&#10;• Vegetation Density&#10;• Building Density" style="text;strokeColor=none;fillColor=none;align=left;verticalAlign=middle;whiteSpace=wrap;rounded=0;fontSize=12;" vertex="1" parent="1">
                    <mxGeometry x="190" y="200" width="220" height="80" as="geometry"/>
                </mxCell>
                <mxCell id="h4wn7cuC0amw1rr8jjnN-7" value="• Age Demographics&#10;• Pre-existing Health Conditions&#10;• Comorbidities (HIV, TB)&#10;• Inflammatory Markers&#10;• Renal Function" style="text;strokeColor=none;fillColor=none;align=left;verticalAlign=middle;whiteSpace=wrap;rounded=0;fontSize=12;" vertex="1" parent="1">
                    <mxGeometry x="470" y="200" width="220" height="80" as="geometry"/>
                </mxCell>
                <mxCell id="h4wn7cuC0amw1rr8jjnN-8" value="• Air Conditioning Access&#10;• Housing Quality&#10;• Public Cooling Access&#10;• Green Space Proximity&#10;• Healthcare Access" style="text;strokeColor=none;fillColor=none;align=left;verticalAlign=middle;whiteSpace=wrap;rounded=0;fontSize=12;" vertex="1" parent="1">
                    <mxGeometry x="750" y="200" width="220" height="80" as="geometry"/>
                </mxCell>
                <mxCell id="h4wn7cuC0amw1rr8jjnN-9" value="INFRASTRUCTURAL JUSTICE FRAMING" style="ellipse;whiteSpace=wrap;html=1;fillColor=#e1d5e7;strokeColor=#9673a6;fontSize=14;fontStyle=1;" vertex="1" parent="1">
                    <mxGeometry x="455" y="290" width="250" height="80" as="geometry"/>
                </mxCell>
                <mxCell id="h4wn7cuC0amw1rr8jjnN-10" value="• Unequal access to protective infrastructure&#10;• Spatial patterns of heat vulnerability&#10;• Socio-economic exclusion patterns" style="text;strokeColor=none;fillColor=none;align=center;verticalAlign=middle;whiteSpace=wrap;rounded=0;fontSize=12;" vertex="1" parent="1">
                    <mxGeometry x="455" y="380" width="250" height="60" as="geometry"/>
                </mxCell>
                <mxCell id="h4wn7cuC0amw1rr8jjnN-11" value="ANALYTICAL APPROACH" style="shape=hexagon;perimeter=hexagonPerimeter2;whiteSpace=wrap;html=1;fillColor=#dae8fc;strokeColor=#6c8ebf;fontSize=14;fontStyle=1;" vertex="1" parent="1">
                    <mxGeometry x="230" y="450" width="700" height="60" as="geometry"/>
                </mxCell>
                <mxCell id="h4wn7cuC0amw1rr8jjnN-12" value="• Geographically Weighted Principal Component Analysis (GW-PCA)&#10;• Causal Machine Learning (PC Algorithm, XGBoost with SHAP)&#10;• LASSO Regression for Predictive Modeling&#10;• Spatio-temporal modeling with DLNM" style="text;strokeColor=none;fillColor=none;align=center;verticalAlign=middle;whiteSpace=wrap;rounded=0;fontSize=12;" vertex="1" parent="1">
                    <mxGeometry x="230" y="520" width="700" height="60" as="geometry"/>
                </mxCell>
                <mxCell id="h4wn7cuC0amw1rr8jjnN-13" value="HEALTH OUTCOMES" style="rounded=1;whiteSpace=wrap;html=1;fillColor=#ffe6cc;strokeColor=#d79b00;fontSize=14;fontStyle=1;" vertex="1" parent="1">
                    <mxGeometry x="230" y="590" width="220" height="60" as="geometry"/>
                </mxCell>
                <mxCell id="h4wn7cuC0amw1rr8jjnN-14" value="• Heat-related mortality&#10;• Cardiovascular events&#10;• Renal dysfunction&#10;• Respiratory exacerbations" style="text;strokeColor=none;fillColor=none;align=left;verticalAlign=middle;whiteSpace=wrap;rounded=0;fontSize=12;" vertex="1" parent="1">
                    <mxGeometry x="230" y="660" width="220" height="70" as="geometry"/>
                </mxCell>
                <mxCell id="h4wn7cuC0amw1rr8jjnN-15" value="POLICY IMPLICATIONS" style="rounded=1;whiteSpace=wrap;html=1;fillColor=#b0e3e6;strokeColor=#0e8088;fontSize=14;fontStyle=1;" vertex="1" parent="1">
                    <mxGeometry x="470" y="590" width="220" height="60" as="geometry"/>
                </mxCell>
                <mxCell id="h4wn7cuC0amw1rr8jjnN-16" value="• Early warning systems&#10;• Urban greening strategies&#10;• Housing policy interventions&#10;• Healthcare resource allocation" style="text;strokeColor=none;fillColor=none;align=left;verticalAlign=middle;whiteSpace=wrap;rounded=0;fontSize=12;" vertex="1" parent="1">
                    <mxGeometry x="470" y="660" width="220" height="70" as="geometry"/>
                </mxCell>
                <mxCell id="h4wn7cuC0amw1rr8jjnN-17" value="CLIMATE CHANGE CONTEXT" style="rounded=1;whiteSpace=wrap;html=1;fillColor=#f8cecc;strokeColor=#b85450;fontSize=14;fontStyle=1;" vertex="1" parent="1">
                    <mxGeometry x="710" y="590" width="220" height="60" as="geometry"/>
                </mxCell>
                <mxCell id="h4wn7cuC0amw1rr8jjnN-18" value="• Accelerating warming trends&#10;• Increased extreme heat events&#10;• Urban heat island intensification&#10;• IPCC AR6 regional projections" style="text;strokeColor=none;fillColor=none;align=left;verticalAlign=middle;whiteSpace=wrap;rounded=0;fontSize=12;" vertex="1" parent="1">
                    <mxGeometry x="710" y="660" width="220" height="70" as="geometry"/>
                </mxCell>
                <mxCell id="h4wn7cuC0amw1rr8jjnN-19" value="JOHANNESBURG CONTEXT" style="shape=process;whiteSpace=wrap;html=1;backgroundOutline=1;fillColor=#f5f5f5;strokeColor=#666666;fontColor=#333333;fontSize=12;fontStyle=1;" vertex="1" parent="1">
                    <mxGeometry x="230" y="740" width="700" height="30" as="geometry"/>
                </mxCell>
                <mxCell id="h4wn7cuC0amw1rr8jjnN-20" style="edgeStyle=orthogonalEdgeStyle;rounded=0;orthogonalLoop=1;jettySize=auto;html=1;exitX=0.25;exitY=1;exitDx=0;exitDy=0;entryX=0.5;entryY=0;entryDx=0;entryDy=0;" edge="1" parent="1" source="h4wn7cuC0amw1rr8jjnN-2" target="h4wn7cuC0amw1rr8jjnN-3">
                    <mxGeometry relative="1" as="geometry"/>
                </mxCell>
                <mxCell id="h4wn7cuC0amw1rr8jjnN-21" style="edgeStyle=orthogonalEdgeStyle;rounded=0;orthogonalLoop=1;jettySize=auto;html=1;exitX=0.5;exitY=1;exitDx=0;exitDy=0;entryX=0.5;entryY=0;entryDx=0;entryDy=0;" edge="1" parent="1" source="h4wn7cuC0amw1rr8jjnN-2" target="h4wn7cuC0amw1rr8jjnN-4">
                    <mxGeometry relative="1" as="geometry"/>
                </mxCell>
                <mxCell id="h4wn7cuC0amw1rr8jjnN-22" style="edgeStyle=orthogonalEdgeStyle;rounded=0;orthogonalLoop=1;jettySize=auto;html=1;exitX=0.75;exitY=1;exitDx=0;exitDy=0;entryX=0.5;entryY=0;entryDx=0;entryDy=0;" edge="1" parent="1" source="h4wn7cuC0amw1rr8jjnN-2" target="h4wn7cuC0amw1rr8jjnN-5">
                    <mxGeometry relative="1" as="geometry"/>
                </mxCell>
                <mxCell id="h4wn7cuC0amw1rr8jjnN-23" style="edgeStyle=orthogonalEdgeStyle;rounded=0;orthogonalLoop=1;jettySize=auto;html=1;exitX=0.5;exitY=1;exitDx=0;exitDy=0;entryX=0;entryY=0.5;entryDx=0;entryDy=0;" edge="1" parent="1" source="h4wn7cuC0amw1rr8jjnN-6" target="h4wn7cuC0amw1rr8jjnN-9">
                    <mxGeometry relative="1" as="geometry">
                        <Array as="points">
                            <mxPoint x="300" y="330"/>
                        </Array>
                    </mxGeometry>
                </mxCell>
                <mxCell id="h4wn7cuC0amw1rr8jjnN-24" style="edgeStyle=orthogonalEdgeStyle;rounded=0;orthogonalLoop=1;jettySize=auto;html=1;exitX=0.5;exitY=1;exitDx=0;exitDy=0;entryX=0.5;entryY=0;entryDx=0;entryDy=0;" edge="1" parent="1" source="h4wn7cuC0amw1rr8jjnN-7" target="h4wn7cuC0amw1rr8jjnN-9">
                    <mxGeometry relative="1" as="geometry"/>
                </mxCell>
                <mxCell id="h4wn7cuC0amw1rr8jjnN-25" style="edgeStyle=orthogonalEdgeStyle;rounded=0;orthogonalLoop=1;jettySize=auto;html=1;exitX=0.5;exitY=1;exitDx=0;exitDy=0;entryX=1;entryY=0.5;entryDx=0;entryDy=0;" edge="1" parent="1" source="h4wn7cuC0amw1rr8jjnN-8" target="h4wn7cuC0amw1rr8jjnN-9">
                    <mxGeometry relative="1" as="geometry">
                        <Array as="points">
                            <mxPoint x="860" y="330"/>
                        </Array>
                    </mxGeometry>
                </mxCell>
                <mxCell id="h4wn7cuC0amw1rr8jjnN-26" style="edgeStyle=orthogonalEdgeStyle;rounded=0;orthogonalLoop=1;jettySize=auto;html=1;exitX=0.5;exitY=1;exitDx=0;exitDy=0;entryX=0.5;entryY=0;entryDx=0;entryDy=0;" edge="1" parent="1" source="h4wn7cuC0amw1rr8jjnN-10" target="h4wn7cuC0amw1rr8jjnN-11">
                    <mxGeometry relative="1" as="geometry"/>
                </mxCell>
                <mxCell id="h4wn7cuC0amw1rr8jjnN-27" style="edgeStyle=orthogonalEdgeStyle;rounded=0;orthogonalLoop=1;jettySize=auto;html=1;exitX=0.155;exitY=1;exitDx=0;exitDy=0;entryX=0.5;entryY=0;entryDx=0;entryDy=0;exitPerimeter=0;" edge="1" parent="1" source="h4wn7cuC0amw1rr8jjnN-12" target="h4wn7cuC0amw1rr8jjnN-13">
                    <mxGeometry relative="1" as="geometry"/>
                </mxCell>
                <mxCell id="h4wn7cuC0amw1rr8jjnN-28" style="edgeStyle=orthogonalEdgeStyle;rounded=0;orthogonalLoop=1;jettySize=auto;html=1;exitX=0.5;exitY=1;exitDx=0;exitDy=0;entryX=0.5;entryY=0;entryDx=0;entryDy=0;" edge="1" parent="1" source="h4wn7cuC0amw1rr8jjnN-12" target="h4wn7cuC0amw1rr8jjnN-15">
                    <mxGeometry relative="1" as="geometry"/>
                </mxCell>
                <mxCell id="h4wn7cuC0amw1rr8jjnN-29" style="edgeStyle=orthogonalEdgeStyle;rounded=0;orthogonalLoop=1;jettySize=auto;html=1;exitX=0.845;exitY=1;exitDx=0;exitDy=0;entryX=0.5;entryY=0;entryDx=0;entryDy=0;exitPerimeter=0;" edge="1" parent="1" source="h4wn7cuC0amw1rr8jjnN-12" target="h4wn7cuC0amw1rr8jjnN-17">
                    <mxGeometry relative="1" as="geometry"/>
                </mxCell>
                <mxCell id="h4wn7cuC0amw1rr8jjnN-30" style="edgeStyle=orthogonalEdgeStyle;rounded=0;orthogonalLoop=1;jettySize=auto;html=1;exitX=0.5;exitY=1;exitDx=0;exitDy=0;entryX=0.143;entryY=0;entryDx=0;entryDy=0;entryPerimeter=0;" edge="1" parent="1" source="h4wn7cuC0amw1rr8jjnN-14" target="h4wn7cuC0amw1rr8jjnN-19">
                    <mxGeometry relative="1" as="geometry"/>
                </mxCell>
                <mxCell id="h4wn7cuC0amw1rr8jjnN-31" style="edgeStyle=orthogonalEdgeStyle;rounded=0;orthogonalLoop=1;jettySize=auto;html=1;exitX=0.5;exitY=1;exitDx=0;exitDy=0;entryX=0.5;entryY=0;entryDx=0;entryDy=0;" edge="1" parent="1" source="h4wn7cuC0amw1rr8jjnN-16" target="h4wn7cuC0amw1rr8jjnN-19">
                    <mxGeometry relative="1" as="geometry"/>
                </mxCell>
                <mxCell id="h4wn7cuC0amw1rr8jjnN-32" style="edgeStyle=orthogonalEdgeStyle;rounded=0;orthogonalLoop=1;jettySize=auto;html=1;exitX=0.5;exitY=1;exitDx=0;exitDy=0;entryX=0.857;entryY=0;entryDx=0;entryDy=0;entryPerimeter=0;" edge="1" parent="1" source="h4wn7cuC0amw1rr8jjnN-18" target="h4wn7cuC0amw1rr8jjnN-19">
                    <mxGeometry relative="1" as="geometry"/>
                </mxCell>
            </root>
        </mxGraphModel>
    </diagram>
    <diagram name="Page-3" id="p4cqJvjaoLaRvXZtNUO-">
        <mxGraphModel dx="2047" dy="814" grid="1" gridSize="10" guides="1" tooltips="1" connect="1" arrows="1" fold="1" page="1" pageScale="1" pageWidth="827" pageHeight="1169" math="0" shadow="0">
            <root>
                <mxCell id="0"/>
                <mxCell id="1" parent="0"/>
                <mxCell id="vfWaW2UHl3x4KkC4JvXO-1" value="Conceptual Framework: Urban Heat Vulnerability Analysis" style="text;fontSize=18;fontStyle=1;align=center;fontColor=#006666;" vertex="1" parent="1">
                    <mxGeometry x="230" y="20" width="700" height="30" as="geometry"/>
                </mxCell>
                <mxCell id="vfWaW2UHl3x4KkC4JvXO-2" value="HISTORICAL CONTEXT: URBAN DEVELOPMENT PATTERNS" style="shape=process;whiteSpace=wrap;html=1;backgroundOutline=1;fillColor=#f5f5f5;strokeColor=#666666;fontColor=#333333;fontSize=12;fontStyle=1;" vertex="1" parent="1">
                    <mxGeometry x="230" y="60" width="700" height="30" as="geometry"/>
                </mxCell>
                <mxCell id="vfWaW2UHl3x4KkC4JvXO-3" value="EXPOSURE" style="rounded=1;whiteSpace=wrap;html=1;fillColor=#f8cecc;strokeColor=#b85450;fontSize=14;fontStyle=1;" vertex="1" parent="1">
                    <mxGeometry x="190" y="130" width="220" height="60" as="geometry"/>
                </mxCell>
                <mxCell id="vfWaW2UHl3x4KkC4JvXO-4" value="SENSITIVITY" style="rounded=1;whiteSpace=wrap;html=1;fillColor=#fff2cc;strokeColor=#d6b656;fontSize=14;fontStyle=1;" vertex="1" parent="1">
                    <mxGeometry x="470" y="130" width="220" height="60" as="geometry"/>
                </mxCell>
                <mxCell id="vfWaW2UHl3x4KkC4JvXO-5" value="ADAPTIVE CAPACITY" style="rounded=1;whiteSpace=wrap;html=1;fillColor=#d5e8d4;strokeColor=#82b366;fontSize=14;fontStyle=1;" vertex="1" parent="1">
                    <mxGeometry x="750" y="130" width="220" height="60" as="geometry"/>
                </mxCell>
                <mxCell id="vfWaW2UHl3x4KkC4JvXO-6" value="• Urban Heat Islands&#10;• Surface Temperature&#10;• Land Cover/Land Use&#10;• Vegetation Density&#10;• Building Density" style="text;strokeColor=none;fillColor=none;align=left;verticalAlign=middle;whiteSpace=wrap;rounded=0;fontSize=12;" vertex="1" parent="1">
                    <mxGeometry x="190" y="200" width="220" height="80" as="geometry"/>
                </mxCell>
                <mxCell id="vfWaW2UHl3x4KkC4JvXO-7" value="• Age Demographics&#10;• Pre-existing Health Conditions&#10;• Comorbidities (HIV, TB)&#10;• Inflammatory Markers&#10;• Renal Function" style="text;strokeColor=none;fillColor=none;align=left;verticalAlign=middle;whiteSpace=wrap;rounded=0;fontSize=12;" vertex="1" parent="1">
                    <mxGeometry x="470" y="200" width="220" height="80" as="geometry"/>
                </mxCell>
                <mxCell id="vfWaW2UHl3x4KkC4JvXO-8" value="• Air Conditioning Access&#10;• Housing Quality&#10;• Public Cooling Access&#10;• Green Space Proximity&#10;• Healthcare Access" style="text;strokeColor=none;fillColor=none;align=left;verticalAlign=middle;whiteSpace=wrap;rounded=0;fontSize=12;" vertex="1" parent="1">
                    <mxGeometry x="750" y="200" width="220" height="80" as="geometry"/>
                </mxCell>
                <mxCell id="vfWaW2UHl3x4KkC4JvXO-9" value="ANALYTICAL LENSES" style="shape=process;whiteSpace=wrap;html=1;backgroundOutline=1;fillColor=#f5f5f5;strokeColor=#666666;fontColor=#333333;fontSize=14;fontStyle=1;" vertex="1" parent="1">
                    <mxGeometry x="230" y="290" width="700" height="40" as="geometry"/>
                </mxCell>
                <mxCell id="vfWaW2UHl3x4KkC4JvXO-10" value="INFRASTRUCTURAL JUSTICE" style="ellipse;whiteSpace=wrap;html=1;fillColor=#e1d5e7;strokeColor=#9673a6;fontSize=14;fontStyle=1;" vertex="1" parent="1">
                    <mxGeometry x="190" y="350" width="220" height="60" as="geometry"/>
                </mxCell>
                <mxCell id="vfWaW2UHl3x4KkC4JvXO-11" value="CLIMATE RESILIENCE" style="ellipse;whiteSpace=wrap;html=1;fillColor=#dae8fc;strokeColor=#6c8ebf;fontSize=14;fontStyle=1;" vertex="1" parent="1">
                    <mxGeometry x="470" y="340" width="220" height="60" as="geometry"/>
                </mxCell>
                <mxCell id="vfWaW2UHl3x4KkC4JvXO-12" value="HEALTH EQUITY" style="ellipse;whiteSpace=wrap;html=1;fillColor=#fff2cc;strokeColor=#d6b656;fontSize=14;fontStyle=1;" vertex="1" parent="1">
                    <mxGeometry x="750" y="340" width="220" height="60" as="geometry"/>
                </mxCell>
                <mxCell id="vfWaW2UHl3x4KkC4JvXO-13" value="• Access to protective infrastructure&#10;• Legacy of socio-spatial patterns" style="text;strokeColor=none;fillColor=none;align=center;verticalAlign=middle;whiteSpace=wrap;rounded=0;fontSize=12;" vertex="1" parent="1">
                    <mxGeometry x="190" y="410" width="220" height="40" as="geometry"/>
                </mxCell>
                <mxCell id="vfWaW2UHl3x4KkC4JvXO-14" value="• Adaptive capacity building&#10;• Climate-resilient urban futures" style="text;strokeColor=none;fillColor=none;align=center;verticalAlign=middle;whiteSpace=wrap;rounded=0;fontSize=12;" vertex="1" parent="1">
                    <mxGeometry x="470" y="410" width="220" height="40" as="geometry"/>
                </mxCell>
                <mxCell id="vfWaW2UHl3x4KkC4JvXO-15" value="• Differential health impacts&#10;• Vulnerable population identification" style="text;strokeColor=none;fillColor=none;align=center;verticalAlign=middle;whiteSpace=wrap;rounded=0;fontSize=12;" vertex="1" parent="1">
                    <mxGeometry x="750" y="410" width="220" height="40" as="geometry"/>
                </mxCell>
                <mxCell id="vfWaW2UHl3x4KkC4JvXO-16" value="ANALYTICAL APPROACH" style="shape=hexagon;perimeter=hexagonPerimeter2;whiteSpace=wrap;html=1;fillColor=#dae8fc;strokeColor=#6c8ebf;fontSize=14;fontStyle=1;" vertex="1" parent="1">
                    <mxGeometry x="230" y="470" width="700" height="60" as="geometry"/>
                </mxCell>
                <mxCell id="vfWaW2UHl3x4KkC4JvXO-17" value="• Geographically Weighted Principal Component Analysis (GW-PCA)&#10;• Causal Machine Learning (PC Algorithm, XGBoost with SHAP)&#10;• LASSO Regression for Predictive Modeling&#10;• Spatio-temporal modeling with DLNM" style="text;strokeColor=none;fillColor=none;align=center;verticalAlign=middle;whiteSpace=wrap;rounded=0;fontSize=12;" vertex="1" parent="1">
                    <mxGeometry x="230" y="540" width="700" height="60" as="geometry"/>
                </mxCell>
                <mxCell id="vfWaW2UHl3x4KkC4JvXO-18" value="RESEARCH PHASES" style="shape=process;whiteSpace=wrap;html=1;backgroundOutline=1;fillColor=#f5f5f5;strokeColor=#666666;fontColor=#333333;fontSize=14;fontStyle=1;" vertex="1" parent="1">
                    <mxGeometry x="230" y="610" width="700" height="40" as="geometry"/>
                </mxCell>
                <mxCell id="vfWaW2UHl3x4KkC4JvXO-19" value="1. VULNERABILITY MAPPING" style="rounded=1;whiteSpace=wrap;html=1;fillColor=#f8cecc;strokeColor=#b85450;fontSize=14;fontStyle=1;" vertex="1" parent="1">
                    <mxGeometry x="190" y="660" width="220" height="60" as="geometry"/>
                </mxCell>
                <mxCell id="vfWaW2UHl3x4KkC4JvXO-20" value="2. CAUSAL ANALYSIS" style="rounded=1;whiteSpace=wrap;html=1;fillColor=#fff2cc;strokeColor=#d6b656;fontSize=14;fontStyle=1;" vertex="1" parent="1">
                    <mxGeometry x="470" y="660" width="220" height="60" as="geometry"/>
                </mxCell>
                <mxCell id="vfWaW2UHl3x4KkC4JvXO-21" value="3. PREDICTIVE MODELING" style="rounded=1;whiteSpace=wrap;html=1;fillColor=#d5e8d4;strokeColor=#82b366;fontSize=14;fontStyle=1;" vertex="1" parent="1">
                    <mxGeometry x="750" y="660" width="220" height="60" as="geometry"/>
                </mxCell>
                <mxCell id="vfWaW2UHl3x4KkC4JvXO-22" value="• Heat-related mortality&#10;• Cardiovascular events&#10;• Renal dysfunction&#10;• Respiratory exacerbations" style="text;strokeColor=none;fillColor=none;align=left;verticalAlign=middle;whiteSpace=wrap;rounded=0;fontSize=12;" vertex="1" parent="1">
                    <mxGeometry x="200" y="720" width="220" height="70" as="geometry"/>
                </mxCell>
                <mxCell id="vfWaW2UHl3x4KkC4JvXO-23" value="POLICY IMPLICATIONS" style="rounded=1;whiteSpace=wrap;html=1;fillColor=#b0e3e6;strokeColor=#0e8088;fontSize=14;fontStyle=1;" vertex="1" parent="1">
                    <mxGeometry x="-30" y="510" width="220" height="60" as="geometry"/>
                </mxCell>
                <mxCell id="vfWaW2UHl3x4KkC4JvXO-24" value="• Early warning systems&#10;• Urban greening strategies&#10;• Housing policy interventions&#10;• Healthcare resource allocation" style="text;strokeColor=none;fillColor=none;align=left;verticalAlign=middle;whiteSpace=wrap;rounded=0;fontSize=12;" vertex="1" parent="1">
                    <mxGeometry x="470" y="660" width="220" height="70" as="geometry"/>
                </mxCell>
                <mxCell id="vfWaW2UHl3x4KkC4JvXO-25" value="CLIMATE CHANGE CONTEXT" style="rounded=1;whiteSpace=wrap;html=1;fillColor=#f8cecc;strokeColor=#b85450;fontSize=14;fontStyle=1;" vertex="1" parent="1">
                    <mxGeometry x="710" y="590" width="220" height="60" as="geometry"/>
                </mxCell>
                <mxCell id="vfWaW2UHl3x4KkC4JvXO-26" value="• Accelerating warming trends&#10;• Increased extreme heat events&#10;• Urban heat island intensification&#10;• IPCC AR6 regional projections" style="text;strokeColor=none;fillColor=none;align=left;verticalAlign=middle;whiteSpace=wrap;rounded=0;fontSize=12;" vertex="1" parent="1">
                    <mxGeometry x="710" y="660" width="220" height="70" as="geometry"/>
                </mxCell>
                <mxCell id="vfWaW2UHl3x4KkC4JvXO-27" value="JOHANNESBURG CONTEXT" style="shape=process;whiteSpace=wrap;html=1;backgroundOutline=1;fillColor=#f5f5f5;strokeColor=#666666;fontColor=#333333;fontSize=12;fontStyle=1;" vertex="1" parent="1">
                    <mxGeometry x="230" y="740" width="700" height="30" as="geometry"/>
                </mxCell>
                <mxCell id="vfWaW2UHl3x4KkC4JvXO-28" style="edgeStyle=orthogonalEdgeStyle;rounded=0;orthogonalLoop=1;jettySize=auto;html=1;exitX=0.25;exitY=1;exitDx=0;exitDy=0;entryX=0.5;entryY=0;entryDx=0;entryDy=0;" edge="1" parent="1" source="vfWaW2UHl3x4KkC4JvXO-2" target="vfWaW2UHl3x4KkC4JvXO-3">
                    <mxGeometry relative="1" as="geometry"/>
                </mxCell>
                <mxCell id="vfWaW2UHl3x4KkC4JvXO-29" style="edgeStyle=orthogonalEdgeStyle;rounded=0;orthogonalLoop=1;jettySize=auto;html=1;exitX=0.5;exitY=1;exitDx=0;exitDy=0;entryX=0.5;entryY=0;entryDx=0;entryDy=0;" edge="1" parent="1" source="vfWaW2UHl3x4KkC4JvXO-2" target="vfWaW2UHl3x4KkC4JvXO-4">
                    <mxGeometry relative="1" as="geometry"/>
                </mxCell>
                <mxCell id="vfWaW2UHl3x4KkC4JvXO-30" style="edgeStyle=orthogonalEdgeStyle;rounded=0;orthogonalLoop=1;jettySize=auto;html=1;exitX=0.75;exitY=1;exitDx=0;exitDy=0;entryX=0.5;entryY=0;entryDx=0;entryDy=0;" edge="1" parent="1" source="vfWaW2UHl3x4KkC4JvXO-2" target="vfWaW2UHl3x4KkC4JvXO-5">
                    <mxGeometry relative="1" as="geometry"/>
                </mxCell>
                <mxCell id="vfWaW2UHl3x4KkC4JvXO-31" style="edgeStyle=orthogonalEdgeStyle;rounded=0;orthogonalLoop=1;jettySize=auto;html=1;exitX=0.5;exitY=1;exitDx=0;exitDy=0;entryX=0;entryY=0.5;entryDx=0;entryDy=0;" edge="1" parent="1" source="vfWaW2UHl3x4KkC4JvXO-6" target="vfWaW2UHl3x4KkC4JvXO-10">
                    <mxGeometry relative="1" as="geometry">
                        <Array as="points">
                            <mxPoint x="300" y="330"/>
                        </Array>
                    </mxGeometry>
                </mxCell>
                <mxCell id="vfWaW2UHl3x4KkC4JvXO-32" style="edgeStyle=orthogonalEdgeStyle;rounded=0;orthogonalLoop=1;jettySize=auto;html=1;exitX=0.5;exitY=1;exitDx=0;exitDy=0;entryX=0.5;entryY=0;entryDx=0;entryDy=0;" edge="1" parent="1" source="vfWaW2UHl3x4KkC4JvXO-7" target="vfWaW2UHl3x4KkC4JvXO-10">
                    <mxGeometry relative="1" as="geometry"/>
                </mxCell>
                <mxCell id="vfWaW2UHl3x4KkC4JvXO-33" style="edgeStyle=orthogonalEdgeStyle;rounded=0;orthogonalLoop=1;jettySize=auto;html=1;exitX=0.5;exitY=1;exitDx=0;exitDy=0;entryX=1;entryY=0.5;entryDx=0;entryDy=0;" edge="1" parent="1" source="vfWaW2UHl3x4KkC4JvXO-8" target="vfWaW2UHl3x4KkC4JvXO-10">
                    <mxGeometry relative="1" as="geometry">
                        <Array as="points">
                            <mxPoint x="860" y="330"/>
                        </Array>
                    </mxGeometry>
                </mxCell>
                <mxCell id="vfWaW2UHl3x4KkC4JvXO-34" style="edgeStyle=orthogonalEdgeStyle;rounded=0;orthogonalLoop=1;jettySize=auto;html=1;exitX=0.5;exitY=1;exitDx=0;exitDy=0;entryX=0.5;entryY=0;entryDx=0;entryDy=0;" edge="1" parent="1" source="vfWaW2UHl3x4KkC4JvXO-13" target="vfWaW2UHl3x4KkC4JvXO-16">
                    <mxGeometry relative="1" as="geometry"/>
                </mxCell>
                <mxCell id="vfWaW2UHl3x4KkC4JvXO-35" style="edgeStyle=orthogonalEdgeStyle;rounded=0;orthogonalLoop=1;jettySize=auto;html=1;exitX=0.155;exitY=1;exitDx=0;exitDy=0;entryX=0.5;entryY=0;entryDx=0;entryDy=0;exitPerimeter=0;" edge="1" parent="1" source="vfWaW2UHl3x4KkC4JvXO-17">
                    <mxGeometry relative="1" as="geometry"/>
                </mxCell>
                <mxCell id="vfWaW2UHl3x4KkC4JvXO-36" style="edgeStyle=orthogonalEdgeStyle;rounded=0;orthogonalLoop=1;jettySize=auto;html=1;exitX=0.5;exitY=1;exitDx=0;exitDy=0;entryX=0.5;entryY=0;entryDx=0;entryDy=0;" edge="1" parent="1" source="vfWaW2UHl3x4KkC4JvXO-17" target="vfWaW2UHl3x4KkC4JvXO-23">
                    <mxGeometry relative="1" as="geometry"/>
                </mxCell>
                <mxCell id="vfWaW2UHl3x4KkC4JvXO-37" style="edgeStyle=orthogonalEdgeStyle;rounded=0;orthogonalLoop=1;jettySize=auto;html=1;exitX=0.845;exitY=1;exitDx=0;exitDy=0;entryX=0.5;entryY=0;entryDx=0;entryDy=0;exitPerimeter=0;" edge="1" parent="1" source="vfWaW2UHl3x4KkC4JvXO-17" target="vfWaW2UHl3x4KkC4JvXO-25">
                    <mxGeometry relative="1" as="geometry"/>
                </mxCell>
                <mxCell id="vfWaW2UHl3x4KkC4JvXO-38" style="edgeStyle=orthogonalEdgeStyle;rounded=0;orthogonalLoop=1;jettySize=auto;html=1;exitX=0.5;exitY=1;exitDx=0;exitDy=0;entryX=0.143;entryY=0;entryDx=0;entryDy=0;entryPerimeter=0;" edge="1" parent="1" source="vfWaW2UHl3x4KkC4JvXO-22" target="vfWaW2UHl3x4KkC4JvXO-27">
                    <mxGeometry relative="1" as="geometry"/>
                </mxCell>
                <mxCell id="vfWaW2UHl3x4KkC4JvXO-39" style="edgeStyle=orthogonalEdgeStyle;rounded=0;orthogonalLoop=1;jettySize=auto;html=1;exitX=0.5;exitY=1;exitDx=0;exitDy=0;entryX=0.5;entryY=0;entryDx=0;entryDy=0;" edge="1" parent="1" source="vfWaW2UHl3x4KkC4JvXO-24" target="vfWaW2UHl3x4KkC4JvXO-27">
                    <mxGeometry relative="1" as="geometry"/>
                </mxCell>
                <mxCell id="vfWaW2UHl3x4KkC4JvXO-40" style="edgeStyle=orthogonalEdgeStyle;rounded=0;orthogonalLoop=1;jettySize=auto;html=1;exitX=0.5;exitY=1;exitDx=0;exitDy=0;entryX=0.857;entryY=0;entryDx=0;entryDy=0;entryPerimeter=0;" edge="1" parent="1" source="vfWaW2UHl3x4KkC4JvXO-26" target="vfWaW2UHl3x4KkC4JvXO-27">
                    <mxGeometry relative="1" as="geometry"/>
                </mxCell>
            </root>
        </mxGraphModel>
    </diagram>
    <diagram name="Page-4" id="i30T7GySvsnMF4dT3Cg3">
        <mxGraphModel dx="1220" dy="814" grid="1" gridSize="10" guides="1" tooltips="1" connect="1" arrows="1" fold="1" page="1" pageScale="1" pageWidth="827" pageHeight="1169" math="0" shadow="0">
            <root>
                <mxCell id="0"/>
                <mxCell id="1" parent="0"/>
                <mxCell id="ZgDztdrt5lAhBoeaBknp-1" value="&#10;  &#10;    &#10;      &#10;        &#10;        &#10;        &#10;        &#10;        &#10;          &#10;        &#10;        &#10;        &#10;        &#10;          &#10;        &#10;        &#10;        &#10;          &#10;        &#10;        &#10;        &#10;          &#10;        &#10;        &#10;        &#10;          &#10;        &#10;        &#10;        &#10;        &#10;          &#10;        &#10;        &#10;        &#10;          &#10;        &#10;        &#10;        &#10;          &#10;        &#10;        &#10;        &#10;        &#10;          &#10;        &#10;        &#10;        &#10;        &#10;          &#10;        &#10;        &#10;        &#10;          &#10;        &#10;        &#10;        &#10;          &#10;        &#10;        &#10;        &#10;          &#10;        &#10;        &#10;        &#10;          &#10;        &#10;        &#10;        &#10;          &#10;        &#10;        &#10;        &#10;        &#10;          &#10;        &#10;        &#10;        &#10;        &#10;          &#10;        &#10;        &#10;        &#10;          &#10;        &#10;        &#10;        &#10;          &#10;            &#10;            &#10;          &#10;        &#10;        &#10;        &#10;          &#10;        &#10;        &#10;        &#10;          &#10;        &#10;        &#10;        &#10;          &#10;            &#10;            &#10;          &#10;        &#10;        &#10;        &#10;          &#10;        &#10;        &#10;        &#10;          &#10;        &#10;        &#10;        &#10;        &#10;          &#10;        &#10;        &#10;        &#10;          &#10;        &#10;        &#10;        &#10;        &#10;          &#10;        &#10;      &#10;    &#10;  &#10;&#10;        &#10;          &#10;        &#10;        &#10;        &#10;          &#10;        &#10;        &#10;          &#10;        &#10;        &#10;        &#10;          &#10;        &#10;        &#10;          &#10;        &#10;        &#10;        &#10;          &#10;        &#10;        &#10;        &#10;        &#10;          &#10;        &#10;        &#10;          &#10;        &#10;        &#10;          &#10;        &#10;        &#10;        &#10;          &#10;            &#10;              &#10;            &#10;          &#10;        &#10;        &#10;          &#10;        &#10;        &#10;          &#10;            &#10;              &#10;            &#10;          &#10;        &#10;        &#10;        &#10;          &#10;        &#10;        &#10;        &#10;          &#10;        &#10;        &#10;          &#10;        &#10;        &#10;          &#10;        &#10;        &#10;        &#10;          &#10;        &#10;        &#10;          &#10;        &#10;        &#10;          &#10;        &#10;      &#10;    &#10;  &#10;" style="text;whiteSpace=wrap;html=1;" parent="1" vertex="1">
                    <mxGeometry width="30" height="3050" as="geometry"/>
                </mxCell>
                <mxCell id="9PCZO-p81UgUTtYrjojA-1" value="&#10;  &#10;    &#10;      &#10;        &#10;        &#10;        &#10;        &#10;        &#10;          &#10;        &#10;        &#10;        &#10;        &#10;          &#10;        &#10;        &#10;        &#10;          &#10;        &#10;        &#10;        &#10;          &#10;        &#10;        &#10;        &#10;          &#10;        &#10;        &#10;        &#10;        &#10;          &#10;        &#10;        &#10;        &#10;          &#10;        &#10;        &#10;        &#10;          &#10;        &#10;        &#10;        &#10;        &#10;          &#10;        &#10;        &#10;        &#10;        &#10;          &#10;        &#10;        &#10;        &#10;          &#10;        &#10;        &#10;        &#10;          &#10;        &#10;        &#10;        &#10;          &#10;        &#10;        &#10;        &#10;          &#10;        &#10;        &#10;        &#10;          &#10;        &#10;        &#10;        &#10;        &#10;          &#10;        &#10;        &#10;        &#10;        &#10;          &#10;        &#10;        &#10;        &#10;          &#10;        &#10;        &#10;        &#10;          &#10;            &#10;            &#10;          &#10;        &#10;        &#10;        &#10;          &#10;        &#10;        &#10;        &#10;          &#10;        &#10;        &#10;        &#10;          &#10;            &#10;            &#10;          &#10;        &#10;        &#10;        &#10;          &#10;        &#10;        &#10;        &#10;          &#10;        &#10;        &#10;        &#10;        &#10;          &#10;        &#10;        &#10;        &#10;          &#10;        &#10;        &#10;        &#10;        &#10;          &#10;        &#10;      &#10;    &#10;  &#10;&#10;          &#10;        &#10;        &#10;        &#10;          &#10;        &#10;        &#10;          &#10;        &#10;        &#10;        &#10;          &#10;        &#10;        &#10;        &#10;        &#10;          &#10;        &#10;        &#10;          &#10;        &#10;        &#10;          &#10;        &#10;        &#10;        &#10;          &#10;            &#10;              &#10;            &#10;          &#10;        &#10;        &#10;          &#10;        &#10;        &#10;          &#10;            &#10;              &#10;            &#10;          &#10;        &#10;        &#10;        &#10;          &#10;        &#10;        &#10;        &#10;          &#10;        &#10;        &#10;          &#10;        &#10;        &#10;          &#10;        &#10;        &#10;        &#10;          &#10;        &#10;        &#10;          &#10;        &#10;        &#10;          &#10;        &#10;      &#10;    &#10;  &#10;" style="text;whiteSpace=wrap;html=1;" vertex="1" parent="1">
                    <mxGeometry width="30" height="2930" as="geometry"/>
                </mxCell>
            </root>
        </mxGraphModel>
    </diagram>
</mxfile>